M48
; DRILL file {KiCad 7.0.9} date Wed Jan 22 01:01:42 2025
; FORMAT={-:-/ absolute / inch / decimal}
; #@! TF.CreationDate,2025-01-22T01:01:42+01:00
; #@! TF.GenerationSoftware,Kicad,Pcbnew,7.0.9
; #@! TF.FileFunction,Plated,1,2,PTH
FMAT,2
INCH
; #@! TA.AperFunction,Plated,PTH,ViaDrill
T1C0.0157
; #@! TA.AperFunction,Plated,PTH,ComponentDrill
T2C0.0256
; #@! TA.AperFunction,Plated,PTH,ComponentDrill
T3C0.0315
; #@! TA.AperFunction,Plated,PTH,ComponentDrill
T4C0.0394
%
G90
G05
T1
X6.07Y-2.05
X6.12Y-2.51
X6.18Y-2.2415
X6.18Y-2.3162
X6.22Y-2.42
X6.2559Y-2.2559
X6.26Y-2.49
X6.2602Y-2.4502
X6.36Y-2.15
X6.37Y-2.46
X6.3774Y-2.3426
X6.38Y-2.59
X6.4Y-2.4029
X6.4027Y-2.4818
X6.4041Y-2.3138
X6.42Y-2.02
X6.436Y-2.2907
X6.44Y-2.46
X6.4735Y-2.2769
X6.48Y-2.59
X6.49Y-2.48
X6.5124Y-2.2706
X6.5506Y-2.3002
X6.5597Y-2.4785
X6.5636Y-2.1537
X6.5643Y-2.0215
X6.5899Y-2.2999
X6.62Y-2.16
X6.6398Y-2.0998
X6.66Y-2.17
X6.6757Y-2.0215
X6.71Y-2.05
X6.7841Y-2.05
X6.8724Y-2.7624
X6.9252Y-2.4648
X7.0Y-2.69
X7.01Y-2.62
X7.1414Y-2.526
X7.18Y-2.5438
X7.2282Y-2.5572
X7.25Y-2.45
X7.25Y-2.59
X7.26Y-2.69
X7.28Y-2.8
X7.3185Y-2.68
X7.32Y-2.4906
X7.32Y-2.76
X7.34Y-2.5685
X7.4Y-2.54
X7.4Y-2.68
X7.4098Y-2.5002
X7.46Y-2.8
X7.53Y-2.44
X7.68Y-2.43
X7.71Y-2.79
X7.72Y-2.6
X7.88Y-2.39
X7.91Y-2.58
X7.95Y-2.79
T2
X6.21Y-2.12
X6.26Y-2.12
X6.6156Y-2.74
X6.6656Y-2.74
X6.7056Y-2.12
X6.7556Y-2.12
T3
X6.04Y-2.1935
X6.04Y-2.3865
X6.46Y-2.759
X6.46Y-2.8574
T4
X5.94Y-2.6702
X5.94Y-2.7702
X6.0702Y-1.98
X6.1702Y-1.98
X6.32Y-1.98
X6.42Y-1.98
X6.52Y-1.98
X6.62Y-1.98
X6.84Y-2.88
X6.91Y-2.26
X6.94Y-2.88
X7.01Y-2.26
X7.04Y-2.88
X7.11Y-2.26
X7.14Y-2.88
X7.21Y-2.26
X7.24Y-2.88
X7.31Y-2.26
X7.34Y-2.88
X7.41Y-2.26
X7.44Y-2.88
X7.51Y-2.26
X7.54Y-2.88
X7.61Y-2.26
X7.64Y-2.88
X7.71Y-2.26
X7.74Y-2.88
X7.81Y-2.26
X7.84Y-2.88
X7.91Y-2.26
X8.01Y-2.26
T0
M30
