%TF.GenerationSoftware,KiCad,Pcbnew,7.0.9*%
%TF.CreationDate,2025-01-22T01:01:42+01:00*%
%TF.ProjectId,MaotekEDP,4d616f74-656b-4454-9450-2e6b69636164,rev?*%
%TF.SameCoordinates,Original*%
%TF.FileFunction,Soldermask,Top*%
%TF.FilePolarity,Negative*%
%FSLAX46Y46*%
G04 Gerber Fmt 4.6, Leading zero omitted, Abs format (unit mm)*
G04 Created by KiCad (PCBNEW 7.0.9) date 2025-01-22 01:01:42*
%MOMM*%
%LPD*%
G01*
G04 APERTURE LIST*
G04 Aperture macros list*
%AMRoundRect*
0 Rectangle with rounded corners*
0 $1 Rounding radius*
0 $2 $3 $4 $5 $6 $7 $8 $9 X,Y pos of 4 corners*
0 Add a 4 corners polygon primitive as box body*
4,1,4,$2,$3,$4,$5,$6,$7,$8,$9,$2,$3,0*
0 Add four circle primitives for the rounded corners*
1,1,$1+$1,$2,$3*
1,1,$1+$1,$4,$5*
1,1,$1+$1,$6,$7*
1,1,$1+$1,$8,$9*
0 Add four rect primitives between the rounded corners*
20,1,$1+$1,$2,$3,$4,$5,0*
20,1,$1+$1,$4,$5,$6,$7,0*
20,1,$1+$1,$6,$7,$8,$9,0*
20,1,$1+$1,$8,$9,$2,$3,0*%
G04 Aperture macros list end*
%ADD10R,1.700000X1.700000*%
%ADD11O,1.700000X1.700000*%
%ADD12C,1.500000*%
%ADD13RoundRect,0.237500X-0.300000X-0.237500X0.300000X-0.237500X0.300000X0.237500X-0.300000X0.237500X0*%
%ADD14RoundRect,0.237500X0.237500X-0.250000X0.237500X0.250000X-0.237500X0.250000X-0.237500X-0.250000X0*%
%ADD15RoundRect,0.237500X-0.237500X0.250000X-0.237500X-0.250000X0.237500X-0.250000X0.237500X0.250000X0*%
%ADD16RoundRect,0.237500X0.250000X0.237500X-0.250000X0.237500X-0.250000X-0.237500X0.250000X-0.237500X0*%
%ADD17RoundRect,0.150000X-0.150000X0.512500X-0.150000X-0.512500X0.150000X-0.512500X0.150000X0.512500X0*%
%ADD18R,1.000000X1.000000*%
%ADD19O,1.000000X1.000000*%
%ADD20RoundRect,0.237500X-0.237500X0.300000X-0.237500X-0.300000X0.237500X-0.300000X0.237500X0.300000X0*%
%ADD21RoundRect,0.237500X0.300000X0.237500X-0.300000X0.237500X-0.300000X-0.237500X0.300000X-0.237500X0*%
%ADD22R,1.600000X1.600000*%
%ADD23C,1.600000*%
%ADD24RoundRect,0.075000X-0.662500X-0.075000X0.662500X-0.075000X0.662500X0.075000X-0.662500X0.075000X0*%
%ADD25RoundRect,0.075000X-0.075000X-0.662500X0.075000X-0.662500X0.075000X0.662500X-0.075000X0.662500X0*%
%ADD26RoundRect,0.237500X-0.250000X-0.237500X0.250000X-0.237500X0.250000X0.237500X-0.250000X0.237500X0*%
%ADD27R,1.500000X2.000000*%
%ADD28R,3.800000X2.000000*%
G04 APERTURE END LIST*
D10*
%TO.C,J9*%
X156723000Y-50292000D03*
D11*
X154183000Y-50292000D03*
%TD*%
D10*
%TO.C,J8*%
X175514000Y-57404000D03*
D11*
X178054000Y-57404000D03*
X180594000Y-57404000D03*
X183134000Y-57404000D03*
X185674000Y-57404000D03*
X188214000Y-57404000D03*
X190754000Y-57404000D03*
X193294000Y-57404000D03*
X195834000Y-57404000D03*
X198374000Y-57404000D03*
X200914000Y-57404000D03*
X203454000Y-57404000D03*
%TD*%
D12*
%TO.C,Y1*%
X153416000Y-60616000D03*
X153416000Y-55716000D03*
%TD*%
D13*
%TO.C,C13*%
X149759500Y-73406000D03*
X151484500Y-73406000D03*
%TD*%
D10*
%TO.C,J3*%
X168148000Y-50292000D03*
D11*
X165608000Y-50292000D03*
X163068000Y-50292000D03*
X160528000Y-50292000D03*
%TD*%
D14*
%TO.C,C19*%
X157734000Y-62126500D03*
X157734000Y-60301500D03*
%TD*%
D15*
%TO.C,R11*%
X202570000Y-67402500D03*
X202570000Y-69227500D03*
%TD*%
D16*
%TO.C,R14*%
X163980500Y-67056000D03*
X162155500Y-67056000D03*
%TD*%
D17*
%TO.C,Q7*%
X194564000Y-60706000D03*
X192664000Y-60706000D03*
X193614000Y-62981000D03*
%TD*%
D10*
%TO.C,J7*%
X150876000Y-70363000D03*
D11*
X150876000Y-67823000D03*
%TD*%
D18*
%TO.C,J4*%
X157734000Y-53848000D03*
D19*
X159004000Y-53848000D03*
%TD*%
D17*
%TO.C,Q8*%
X194564000Y-66802000D03*
X192664000Y-66802000D03*
X193614000Y-69077000D03*
%TD*%
D15*
%TO.C,R6*%
X189804000Y-61306500D03*
X189804000Y-63131500D03*
%TD*%
D20*
%TO.C,C18*%
X149860000Y-59589500D03*
X149860000Y-61314500D03*
%TD*%
D17*
%TO.C,Q1*%
X176464000Y-62616500D03*
X174564000Y-62616500D03*
X175514000Y-64891500D03*
%TD*%
D21*
%TO.C,C16*%
X167994500Y-67056000D03*
X166269500Y-67056000D03*
%TD*%
D16*
%TO.C,C22*%
X171600500Y-56134000D03*
X169775500Y-56134000D03*
%TD*%
%TO.C,R12*%
X158900500Y-56134000D03*
X157075500Y-56134000D03*
%TD*%
D17*
%TO.C,Q3*%
X181610000Y-60706000D03*
X179710000Y-60706000D03*
X180660000Y-62981000D03*
%TD*%
D22*
%TO.C,C14*%
X164084000Y-72579113D03*
D23*
X164084000Y-70079113D03*
%TD*%
D15*
%TO.C,R10*%
X202570000Y-61306500D03*
X202570000Y-63131500D03*
%TD*%
D10*
%TO.C,J2*%
X173736000Y-73152000D03*
D11*
X176276000Y-73152000D03*
X178816000Y-73152000D03*
X181356000Y-73152000D03*
X183896000Y-73152000D03*
X186436000Y-73152000D03*
X188976000Y-73152000D03*
X191516000Y-73152000D03*
X194056000Y-73152000D03*
X196596000Y-73152000D03*
X199136000Y-73152000D03*
%TD*%
D15*
%TO.C,R2*%
X178054000Y-63095500D03*
X178054000Y-64920500D03*
%TD*%
D17*
%TO.C,Q10*%
X200914000Y-66802000D03*
X199014000Y-66802000D03*
X199964000Y-69077000D03*
%TD*%
D24*
%TO.C,U1*%
X160429500Y-57452000D03*
X160429500Y-57952000D03*
X160429500Y-58452000D03*
X160429500Y-58952000D03*
X160429500Y-59452000D03*
X160429500Y-59952000D03*
X160429500Y-60452000D03*
X160429500Y-60952000D03*
X160429500Y-61452000D03*
X160429500Y-61952000D03*
X160429500Y-62452000D03*
X160429500Y-62952000D03*
D25*
X161842000Y-64364500D03*
X162342000Y-64364500D03*
X162842000Y-64364500D03*
X163342000Y-64364500D03*
X163842000Y-64364500D03*
X164342000Y-64364500D03*
X164842000Y-64364500D03*
X165342000Y-64364500D03*
X165842000Y-64364500D03*
X166342000Y-64364500D03*
X166842000Y-64364500D03*
X167342000Y-64364500D03*
D24*
X168754500Y-62952000D03*
X168754500Y-62452000D03*
X168754500Y-61952000D03*
X168754500Y-61452000D03*
X168754500Y-60952000D03*
X168754500Y-60452000D03*
X168754500Y-59952000D03*
X168754500Y-59452000D03*
X168754500Y-58952000D03*
X168754500Y-58452000D03*
X168754500Y-57952000D03*
X168754500Y-57452000D03*
D25*
X167342000Y-56039500D03*
X166842000Y-56039500D03*
X166342000Y-56039500D03*
X165842000Y-56039500D03*
X165342000Y-56039500D03*
X164842000Y-56039500D03*
X164342000Y-56039500D03*
X163842000Y-56039500D03*
X163342000Y-56039500D03*
X162842000Y-56039500D03*
X162342000Y-56039500D03*
X161842000Y-56039500D03*
%TD*%
D17*
%TO.C,Q9*%
X200914000Y-60706000D03*
X199014000Y-60706000D03*
X199964000Y-62981000D03*
%TD*%
D26*
%TO.C,C20*%
X161139500Y-53340000D03*
X162964500Y-53340000D03*
%TD*%
D17*
%TO.C,Q2*%
X174752000Y-66791000D03*
X172852000Y-66791000D03*
X173802000Y-69066000D03*
%TD*%
%TO.C,Q4*%
X181544000Y-66791000D03*
X179644000Y-66791000D03*
X180594000Y-69066000D03*
%TD*%
D26*
%TO.C,R13*%
X165965500Y-53340000D03*
X167790500Y-53340000D03*
%TD*%
D15*
%TO.C,R7*%
X189804000Y-67402500D03*
X189804000Y-69227500D03*
%TD*%
%TO.C,R9*%
X196220000Y-67402500D03*
X196220000Y-69227500D03*
%TD*%
%TO.C,R5*%
X183200000Y-67402500D03*
X183200000Y-69227500D03*
%TD*%
D18*
%TO.C,J6*%
X169306000Y-69596000D03*
D19*
X168036000Y-69596000D03*
%TD*%
D15*
%TO.C,R4*%
X183200000Y-61306500D03*
X183200000Y-63131500D03*
%TD*%
D18*
%TO.C,J5*%
X171592000Y-53848000D03*
D19*
X170322000Y-53848000D03*
%TD*%
D15*
%TO.C,R8*%
X196154000Y-61306500D03*
X196154000Y-63131500D03*
%TD*%
D27*
%TO.C,U2*%
X159766000Y-67208000D03*
X157466000Y-67208000D03*
D28*
X157466000Y-73508000D03*
D27*
X155166000Y-67208000D03*
%TD*%
D20*
%TO.C,C17*%
X149860000Y-54763500D03*
X149860000Y-56488500D03*
%TD*%
D15*
%TO.C,R3*%
X176408000Y-67402500D03*
X176408000Y-69227500D03*
%TD*%
D17*
%TO.C,Q6*%
X188148000Y-66802000D03*
X186248000Y-66802000D03*
X187198000Y-69077000D03*
%TD*%
%TO.C,Q5*%
X188214000Y-60706000D03*
X186314000Y-60706000D03*
X187264000Y-62981000D03*
%TD*%
M02*
