%TF.GenerationSoftware,KiCad,Pcbnew,7.0.9*%
%TF.CreationDate,2025-01-22T01:01:42+01:00*%
%TF.ProjectId,MaotekEDP,4d616f74-656b-4454-9450-2e6b69636164,rev?*%
%TF.SameCoordinates,Original*%
%TF.FileFunction,Legend,Bot*%
%TF.FilePolarity,Positive*%
%FSLAX46Y46*%
G04 Gerber Fmt 4.6, Leading zero omitted, Abs format (unit mm)*
G04 Created by KiCad (PCBNEW 7.0.9) date 2025-01-22 01:01:42*
%MOMM*%
%LPD*%
G01*
G04 APERTURE LIST*
%ADD10R,1.700000X1.700000*%
%ADD11O,1.700000X1.700000*%
%ADD12C,1.500000*%
%ADD13R,1.000000X1.000000*%
%ADD14O,1.000000X1.000000*%
%ADD15R,1.600000X1.600000*%
%ADD16C,1.600000*%
G04 APERTURE END LIST*
%LPC*%
D10*
%TO.C,J9*%
X156723000Y-50292000D03*
D11*
X154183000Y-50292000D03*
%TD*%
D10*
%TO.C,J8*%
X175514000Y-57404000D03*
D11*
X178054000Y-57404000D03*
X180594000Y-57404000D03*
X183134000Y-57404000D03*
X185674000Y-57404000D03*
X188214000Y-57404000D03*
X190754000Y-57404000D03*
X193294000Y-57404000D03*
X195834000Y-57404000D03*
X198374000Y-57404000D03*
X200914000Y-57404000D03*
X203454000Y-57404000D03*
%TD*%
D12*
%TO.C,Y1*%
X153416000Y-60616000D03*
X153416000Y-55716000D03*
%TD*%
D10*
%TO.C,J3*%
X168148000Y-50292000D03*
D11*
X165608000Y-50292000D03*
X163068000Y-50292000D03*
X160528000Y-50292000D03*
%TD*%
D10*
%TO.C,J7*%
X150876000Y-70363000D03*
D11*
X150876000Y-67823000D03*
%TD*%
D13*
%TO.C,J4*%
X157734000Y-53848000D03*
D14*
X159004000Y-53848000D03*
%TD*%
D15*
%TO.C,C14*%
X164084000Y-72579113D03*
D16*
X164084000Y-70079113D03*
%TD*%
D10*
%TO.C,J2*%
X173736000Y-73152000D03*
D11*
X176276000Y-73152000D03*
X178816000Y-73152000D03*
X181356000Y-73152000D03*
X183896000Y-73152000D03*
X186436000Y-73152000D03*
X188976000Y-73152000D03*
X191516000Y-73152000D03*
X194056000Y-73152000D03*
X196596000Y-73152000D03*
X199136000Y-73152000D03*
%TD*%
D13*
%TO.C,J6*%
X169306000Y-69596000D03*
D14*
X168036000Y-69596000D03*
%TD*%
D13*
%TO.C,J5*%
X171592000Y-53848000D03*
D14*
X170322000Y-53848000D03*
%TD*%
%LPD*%
M02*
