%TF.GenerationSoftware,KiCad,Pcbnew,7.0.9*%
%TF.CreationDate,2025-01-22T01:01:42+01:00*%
%TF.ProjectId,MaotekEDP,4d616f74-656b-4454-9450-2e6b69636164,rev?*%
%TF.SameCoordinates,Original*%
%TF.FileFunction,Copper,L2,Bot*%
%TF.FilePolarity,Positive*%
%FSLAX46Y46*%
G04 Gerber Fmt 4.6, Leading zero omitted, Abs format (unit mm)*
G04 Created by KiCad (PCBNEW 7.0.9) date 2025-01-22 01:01:42*
%MOMM*%
%LPD*%
G01*
G04 APERTURE LIST*
%TA.AperFunction,ComponentPad*%
%ADD10R,1.700000X1.700000*%
%TD*%
%TA.AperFunction,ComponentPad*%
%ADD11O,1.700000X1.700000*%
%TD*%
%TA.AperFunction,ComponentPad*%
%ADD12C,1.500000*%
%TD*%
%TA.AperFunction,ComponentPad*%
%ADD13R,1.000000X1.000000*%
%TD*%
%TA.AperFunction,ComponentPad*%
%ADD14O,1.000000X1.000000*%
%TD*%
%TA.AperFunction,ComponentPad*%
%ADD15R,1.600000X1.600000*%
%TD*%
%TA.AperFunction,ComponentPad*%
%ADD16C,1.600000*%
%TD*%
%TA.AperFunction,ViaPad*%
%ADD17C,0.800000*%
%TD*%
%TA.AperFunction,Conductor*%
%ADD18C,0.250000*%
%TD*%
%TA.AperFunction,Conductor*%
%ADD19C,0.750000*%
%TD*%
G04 APERTURE END LIST*
D10*
%TO.P,J9,1,Pin_1*%
%TO.N,+3.3V*%
X156723000Y-50292000D03*
D11*
%TO.P,J9,2,Pin_2*%
X154183000Y-50292000D03*
%TD*%
D10*
%TO.P,J8,1,Pin_1*%
%TO.N,39*%
X175514000Y-57404000D03*
D11*
%TO.P,J8,2,Pin_2*%
%TO.N,38*%
X178054000Y-57404000D03*
%TO.P,J8,3,Pin_3*%
%TO.N,40*%
X180594000Y-57404000D03*
%TO.P,J8,4,Pin_4*%
%TO.N,41*%
X183134000Y-57404000D03*
%TO.P,J8,5,Pin_5*%
%TO.N,42*%
X185674000Y-57404000D03*
%TO.P,J8,6,Pin_6*%
%TO.N,43*%
X188214000Y-57404000D03*
%TO.P,J8,7,Pin_7*%
%TO.N,33*%
X190754000Y-57404000D03*
%TO.P,J8,8,Pin_8*%
%TO.N,32*%
X193294000Y-57404000D03*
%TO.P,J8,9,Pin_9*%
%TO.N,GND*%
X195834000Y-57404000D03*
%TO.P,J8,10,Pin_10*%
X198374000Y-57404000D03*
%TO.P,J8,11,Pin_11*%
X200914000Y-57404000D03*
%TO.P,J8,12,Pin_12*%
X203454000Y-57404000D03*
%TD*%
D12*
%TO.P,Y1,1,1*%
%TO.N,OSCOUT*%
X153416000Y-60616000D03*
%TO.P,Y1,2,2*%
%TO.N,OSCIN*%
X153416000Y-55716000D03*
%TD*%
D10*
%TO.P,J3,1,Pin_1*%
%TO.N,+3.3V*%
X168148000Y-50292000D03*
D11*
%TO.P,J3,2,Pin_2*%
%TO.N,SWIO*%
X165608000Y-50292000D03*
%TO.P,J3,3,Pin_3*%
%TO.N,SWCLK*%
X163068000Y-50292000D03*
%TO.P,J3,4,Pin_4*%
%TO.N,GND*%
X160528000Y-50292000D03*
%TD*%
D10*
%TO.P,J7,1,Pin_1*%
%TO.N,+5V*%
X150876000Y-70363000D03*
D11*
%TO.P,J7,2,Pin_2*%
%TO.N,GND*%
X150876000Y-67823000D03*
%TD*%
D13*
%TO.P,J4,1,Pin_1*%
%TO.N,NRST*%
X157734000Y-53848000D03*
D14*
%TO.P,J4,2,Pin_2*%
%TO.N,GND*%
X159004000Y-53848000D03*
%TD*%
D15*
%TO.P,C14,1*%
%TO.N,+3.3V*%
X164084000Y-72579113D03*
D16*
%TO.P,C14,2*%
%TO.N,GND*%
X164084000Y-70079113D03*
%TD*%
D10*
%TO.P,J2,1,Pin_1*%
%TO.N,+3.3V*%
X173736000Y-73152000D03*
D11*
%TO.P,J2,2,Pin_2*%
%TO.N,out1*%
X176276000Y-73152000D03*
%TO.P,J2,3,Pin_3*%
%TO.N,out2*%
X178816000Y-73152000D03*
%TO.P,J2,4,Pin_4*%
%TO.N,out3*%
X181356000Y-73152000D03*
%TO.P,J2,5,Pin_5*%
%TO.N,out4*%
X183896000Y-73152000D03*
%TO.P,J2,6,Pin_6*%
%TO.N,out5*%
X186436000Y-73152000D03*
%TO.P,J2,7,Pin_7*%
%TO.N,out6*%
X188976000Y-73152000D03*
%TO.P,J2,8,Pin_8*%
%TO.N,out7*%
X191516000Y-73152000D03*
%TO.P,J2,9,Pin_9*%
%TO.N,out8*%
X194056000Y-73152000D03*
%TO.P,J2,10,Pin_10*%
%TO.N,out9*%
X196596000Y-73152000D03*
%TO.P,J2,11,Pin_11*%
%TO.N,out10*%
X199136000Y-73152000D03*
%TD*%
D13*
%TO.P,J6,1,Pin_1*%
%TO.N,+3.3V*%
X169306000Y-69596000D03*
D14*
%TO.P,J6,2,Pin_2*%
%TO.N,BOOT1*%
X168036000Y-69596000D03*
%TD*%
D13*
%TO.P,J5,1,Pin_1*%
%TO.N,+3.3V*%
X171592000Y-53848000D03*
D14*
%TO.P,J5,2,Pin_2*%
%TO.N,BOOT0*%
X170322000Y-53848000D03*
%TD*%
D17*
%TO.N,+3.3V*%
X154178000Y-52070000D03*
X155448000Y-63754000D03*
%TO.N,40*%
X166715950Y-54704093D03*
%TO.N,SWCLK*%
X169561820Y-51345738D03*
X168148000Y-54864000D03*
X166734180Y-51345738D03*
%TO.N,39*%
X166384131Y-58425533D03*
%TO.N,38*%
X167383196Y-58416769D03*
%TO.N,41*%
X165413987Y-57673100D03*
%TO.N,42*%
X164427503Y-57833888D03*
%TO.N,43*%
X163475065Y-58184957D03*
%TO.N,GND*%
X168651701Y-53335701D03*
X169164000Y-55118000D03*
%TO.N,+3.3V*%
X161544000Y-54610000D03*
X158900500Y-57300500D03*
X157988000Y-61468000D03*
%TO.N,SWIO*%
X172316500Y-52070000D03*
%TO.N,out5*%
X185928000Y-70104000D03*
X188209701Y-63504299D03*
%TO.N,out1*%
X178054000Y-66548000D03*
X174557760Y-70163760D03*
%TO.N,GND*%
X189484000Y-71120000D03*
X201930000Y-70866000D03*
X195834000Y-70866000D03*
X184912000Y-71120000D03*
X166617500Y-62954500D03*
X162560000Y-61034500D03*
%TO.N,SWIO*%
X170434000Y-52070000D03*
%TO.N,SWCLK*%
X163068000Y-51308000D03*
%TO.N,NRST*%
X156972000Y-58832500D03*
X156972000Y-56933500D03*
%TO.N,in1*%
X175899299Y-62606701D03*
X159008299Y-62234299D03*
%TO.N,in2*%
X161798000Y-62484000D03*
X177800000Y-68326000D03*
%TO.N,in3*%
X159004000Y-63246000D03*
X184150000Y-62230000D03*
%TO.N,in4*%
X184404000Y-68326000D03*
X162052000Y-65786000D03*
%TO.N,in5*%
X183596299Y-64953882D03*
X187960000Y-64516000D03*
X191262000Y-61976000D03*
X162629636Y-63038424D03*
%TO.N,in6*%
X187960000Y-68072000D03*
X185890500Y-68072000D03*
X182372000Y-64611500D03*
X163576000Y-62484000D03*
%TO.N,in7*%
X164846000Y-62992000D03*
X185928000Y-63262497D03*
X195072000Y-61722000D03*
X181390426Y-64161500D03*
%TO.N,in8*%
X184150000Y-65786000D03*
X186436000Y-65240500D03*
X196088000Y-66040000D03*
X164592000Y-65786000D03*
%TO.N,in9*%
X200152000Y-60706000D03*
X162664881Y-58770283D03*
%TO.N,in10*%
X200914000Y-65532000D03*
X161985064Y-59502986D03*
%TD*%
D18*
%TO.N,in1*%
X161015598Y-60227000D02*
X159008299Y-62234299D01*
X165745701Y-62230000D02*
X163742701Y-60227000D01*
X175522598Y-62230000D02*
X165745701Y-62230000D01*
X175899299Y-62606701D02*
X175522598Y-62230000D01*
X163742701Y-60227000D02*
X161015598Y-60227000D01*
%TO.N,in10*%
X196146000Y-60764000D02*
X200914000Y-65532000D01*
X176716695Y-60764000D02*
X196146000Y-60764000D01*
X163929097Y-59777000D02*
X165932097Y-61780000D01*
X162259078Y-59777000D02*
X163929097Y-59777000D01*
X165932097Y-61780000D02*
X175700695Y-61780000D01*
X175700695Y-61780000D02*
X176716695Y-60764000D01*
X161985064Y-59502986D02*
X162259078Y-59777000D01*
%TO.N,in9*%
X176530299Y-60314000D02*
X199760000Y-60314000D01*
X175514299Y-61330000D02*
X176530299Y-60314000D01*
X164115493Y-59327000D02*
X166118493Y-61330000D01*
X163221598Y-59327000D02*
X164115493Y-59327000D01*
X166118493Y-61330000D02*
X175514299Y-61330000D01*
X162664881Y-58770283D02*
X163221598Y-59327000D01*
X199760000Y-60314000D02*
X200152000Y-60706000D01*
%TO.N,43*%
X188214000Y-59436000D02*
X188214000Y-57404000D01*
X175318000Y-60880000D02*
X176334000Y-59864000D01*
X164301889Y-58877000D02*
X166304889Y-60880000D01*
X163779000Y-58877000D02*
X164301889Y-58877000D01*
X163475065Y-58573065D02*
X163779000Y-58877000D01*
X176334000Y-59864000D02*
X187786000Y-59864000D01*
X187786000Y-59864000D02*
X188214000Y-59436000D01*
X163475065Y-58184957D02*
X163475065Y-58573065D01*
X166304889Y-60880000D02*
X175318000Y-60880000D01*
D19*
%TO.N,+3.3V*%
X155448000Y-53340000D02*
X154178000Y-52070000D01*
X155448000Y-63754000D02*
X155448000Y-53340000D01*
D18*
%TO.N,38*%
X177895000Y-56229000D02*
X178054000Y-56388000D01*
X178054000Y-56388000D02*
X178054000Y-57404000D01*
X173895000Y-56229000D02*
X177895000Y-56229000D01*
X167383196Y-58416769D02*
X171707231Y-58416769D01*
X171707231Y-58416769D02*
X173895000Y-56229000D01*
%TO.N,40*%
X180594000Y-56134000D02*
X180594000Y-57404000D01*
X180239000Y-55779000D02*
X180594000Y-56134000D01*
X173708604Y-55779000D02*
X180239000Y-55779000D01*
X173099604Y-56388000D02*
X173708604Y-55779000D01*
X168399857Y-56388000D02*
X173099604Y-56388000D01*
X166715950Y-54704093D02*
X168399857Y-56388000D01*
%TO.N,SWCLK*%
X168968078Y-52610701D02*
X169561820Y-52016959D01*
X167926701Y-53035396D02*
X168351396Y-52610701D01*
X167926701Y-53636006D02*
X167926701Y-53035396D01*
X168351396Y-52610701D02*
X168968078Y-52610701D01*
X169561820Y-52016959D02*
X169561820Y-51345738D01*
X168148000Y-54864000D02*
X168148000Y-53857305D01*
X168148000Y-53857305D02*
X167926701Y-53636006D01*
X166612918Y-51467000D02*
X163227000Y-51467000D01*
X166734180Y-51345738D02*
X166612918Y-51467000D01*
X163227000Y-51467000D02*
X163068000Y-51308000D01*
%TO.N,39*%
X175514000Y-58768000D02*
X175514000Y-57404000D01*
X174752000Y-59530000D02*
X175514000Y-58768000D01*
X167471122Y-59530000D02*
X174752000Y-59530000D01*
X166384131Y-58443009D02*
X167471122Y-59530000D01*
X166384131Y-58425533D02*
X166384131Y-58443009D01*
%TO.N,41*%
X183134000Y-58674000D02*
X183134000Y-57404000D01*
X182844000Y-58964000D02*
X183134000Y-58674000D01*
X165413987Y-58479987D02*
X166914000Y-59980000D01*
X166914000Y-59980000D02*
X174945208Y-59980000D01*
X174945208Y-59980000D02*
X175961208Y-58964000D01*
X165413987Y-57673100D02*
X165413987Y-58479987D01*
X175961208Y-58964000D02*
X182844000Y-58964000D01*
%TO.N,42*%
X185674000Y-58652000D02*
X185674000Y-57404000D01*
X184912000Y-59414000D02*
X185674000Y-58652000D01*
X176147604Y-59414000D02*
X184912000Y-59414000D01*
X175131604Y-60430000D02*
X176147604Y-59414000D01*
X166602000Y-60430000D02*
X175131604Y-60430000D01*
X164427503Y-58255503D02*
X166602000Y-60430000D01*
X164427503Y-57833888D02*
X164427503Y-58255503D01*
%TO.N,in2*%
X177800000Y-70358000D02*
X177800000Y-68326000D01*
X162352305Y-65061000D02*
X162777000Y-65485695D01*
X162777000Y-65485695D02*
X162777000Y-66382604D01*
X167376396Y-70982000D02*
X177176000Y-70982000D01*
X177176000Y-70982000D02*
X177800000Y-70358000D01*
X162343000Y-65061000D02*
X162352305Y-65061000D01*
X161798000Y-62484000D02*
X161798000Y-64516000D01*
X161798000Y-64516000D02*
X162343000Y-65061000D01*
X162777000Y-66382604D02*
X167376396Y-70982000D01*
%TO.N,GND*%
X168910000Y-53594000D02*
X168651701Y-53335701D01*
X169164000Y-55118000D02*
X168910000Y-54864000D01*
X168910000Y-54864000D02*
X168910000Y-53594000D01*
%TO.N,+3.3V*%
X161765299Y-54831299D02*
X165150604Y-54831299D01*
X165150604Y-54831299D02*
X168148000Y-51833903D01*
X168148000Y-51833903D02*
X168148000Y-50292000D01*
X161544000Y-54610000D02*
X161765299Y-54831299D01*
X158900500Y-58777500D02*
X158900500Y-57300500D01*
X157988000Y-59690000D02*
X158900500Y-58777500D01*
X157988000Y-61468000D02*
X157988000Y-59690000D01*
%TO.N,SWIO*%
X170434000Y-52070000D02*
X172316500Y-52070000D01*
%TO.N,out5*%
X187946396Y-63504299D02*
X188209701Y-63504299D01*
X187235000Y-64215695D02*
X187946396Y-63504299D01*
X186435500Y-64215695D02*
X187235000Y-64215695D01*
X187885500Y-65965500D02*
X186135695Y-65965500D01*
X186135695Y-65965500D02*
X185711000Y-65540805D01*
X185711000Y-65540805D02*
X185711000Y-64940195D01*
X188685000Y-66765000D02*
X187885500Y-65965500D01*
X188685000Y-69379000D02*
X188685000Y-66765000D01*
X185711000Y-64940195D02*
X186435500Y-64215695D01*
X187960000Y-70104000D02*
X188685000Y-69379000D01*
X185928000Y-70104000D02*
X187960000Y-70104000D01*
%TO.N,out1*%
X175895000Y-66548000D02*
X178054000Y-66548000D01*
X174557760Y-70163760D02*
X174557760Y-67885240D01*
X174557760Y-67885240D02*
X175895000Y-66548000D01*
%TO.N,in4*%
X162052000Y-66294000D02*
X162052000Y-65786000D01*
X182439604Y-71432000D02*
X167190000Y-71432000D01*
X167190000Y-71432000D02*
X162052000Y-66294000D01*
X184404000Y-68326000D02*
X184404000Y-69467604D01*
X184404000Y-69467604D02*
X182439604Y-71432000D01*
%TO.N,in3*%
X185166000Y-63246000D02*
X184150000Y-62230000D01*
X182626000Y-71882000D02*
X185166000Y-69342000D01*
X165463000Y-71882000D02*
X182626000Y-71882000D01*
X185166000Y-69342000D02*
X185166000Y-63246000D01*
X165035113Y-71454113D02*
X165463000Y-71882000D01*
X159004000Y-66590104D02*
X163868009Y-71454113D01*
X163868009Y-71454113D02*
X165035113Y-71454113D01*
X159004000Y-63246000D02*
X159004000Y-66590104D01*
%TO.N,GND*%
X163913805Y-61034500D02*
X162560000Y-61034500D01*
X165571000Y-62691695D02*
X163913805Y-61034500D01*
X165824500Y-62954500D02*
X165571000Y-62701000D01*
X166617500Y-62954500D02*
X165824500Y-62954500D01*
X165571000Y-62701000D02*
X165571000Y-62691695D01*
%TO.N,in8*%
X186473500Y-65278000D02*
X195326000Y-65278000D01*
X186436000Y-65240500D02*
X186473500Y-65278000D01*
X195326000Y-65278000D02*
X196088000Y-66040000D01*
%TO.N,in5*%
X191262000Y-63246000D02*
X191262000Y-61976000D01*
X189992000Y-64516000D02*
X191262000Y-63246000D01*
X187960000Y-64516000D02*
X189992000Y-64516000D01*
%TO.N,in7*%
X181115926Y-64436000D02*
X181390426Y-64161500D01*
X173266792Y-64436000D02*
X181115926Y-64436000D01*
X172584792Y-63754000D02*
X173266792Y-64436000D01*
X165608000Y-63754000D02*
X172584792Y-63754000D01*
X164846000Y-62992000D02*
X165608000Y-63754000D01*
%TO.N,in8*%
X172707604Y-65786000D02*
X184150000Y-65786000D01*
X172025604Y-65104000D02*
X172707604Y-65786000D01*
X165274000Y-65104000D02*
X172025604Y-65104000D01*
X164592000Y-65786000D02*
X165274000Y-65104000D01*
%TO.N,GND*%
X195834000Y-70866000D02*
X189738000Y-70866000D01*
X195834000Y-70866000D02*
X201930000Y-70866000D01*
X189738000Y-70866000D02*
X189484000Y-71120000D01*
X184912000Y-71120000D02*
X189484000Y-71120000D01*
%TO.N,NRST*%
X156972000Y-58832500D02*
X156972000Y-56933500D01*
%TO.N,in5*%
X172894000Y-65336000D02*
X183214181Y-65336000D01*
X172212000Y-64654000D02*
X172894000Y-65336000D01*
X162713617Y-63038424D02*
X164329193Y-64654000D01*
X162629636Y-63038424D02*
X162713617Y-63038424D01*
X164329193Y-64654000D02*
X172212000Y-64654000D01*
X183214181Y-65336000D02*
X183596299Y-64953882D01*
%TO.N,in6*%
X163434748Y-62446140D02*
X163434748Y-63123159D01*
X164515589Y-64204000D02*
X172398396Y-64204000D01*
X172398396Y-64204000D02*
X173080396Y-64886000D01*
X182097500Y-64886000D02*
X182372000Y-64611500D01*
X173080396Y-64886000D02*
X182097500Y-64886000D01*
X185890500Y-68072000D02*
X187960000Y-68072000D01*
X163434748Y-63123159D02*
X164515589Y-64204000D01*
%TO.N,in7*%
X194564000Y-61214000D02*
X195072000Y-61722000D01*
X187976497Y-61214000D02*
X194564000Y-61214000D01*
X185928000Y-63262497D02*
X187976497Y-61214000D01*
%TD*%
%TA.AperFunction,Conductor*%
%TO.N,GND*%
G36*
X163496393Y-60872462D02*
G01*
X163527252Y-60896141D01*
X164006754Y-61375643D01*
X164045318Y-61442438D01*
X164045318Y-61519566D01*
X164006754Y-61586361D01*
X163939959Y-61624925D01*
X163862831Y-61624925D01*
X163855962Y-61622890D01*
X163855803Y-61622856D01*
X163795911Y-61610125D01*
X163670648Y-61583500D01*
X163670646Y-61583500D01*
X163481354Y-61583500D01*
X163481352Y-61583500D01*
X163381392Y-61604747D01*
X163296197Y-61622856D01*
X163296195Y-61622856D01*
X163296194Y-61622857D01*
X163123272Y-61699847D01*
X162970127Y-61811113D01*
X162843468Y-61951781D01*
X162816037Y-61999293D01*
X162761499Y-62053830D01*
X162686999Y-62073792D01*
X162612499Y-62053829D01*
X162557963Y-61999293D01*
X162530531Y-61951781D01*
X162403872Y-61811113D01*
X162382484Y-61795574D01*
X162250730Y-61699849D01*
X162250729Y-61699848D01*
X162250727Y-61699847D01*
X162077805Y-61622857D01*
X162077803Y-61622856D01*
X161971360Y-61600231D01*
X161892648Y-61583500D01*
X161892646Y-61583500D01*
X161703354Y-61583500D01*
X161703352Y-61583500D01*
X161603392Y-61604747D01*
X161518197Y-61622856D01*
X161518195Y-61622856D01*
X161518194Y-61622857D01*
X161345272Y-61699847D01*
X161192127Y-61811113D01*
X161065469Y-61951779D01*
X160970822Y-62115714D01*
X160970819Y-62115721D01*
X160912325Y-62295745D01*
X160892540Y-62484000D01*
X160912325Y-62672254D01*
X160964039Y-62831411D01*
X160970821Y-62852284D01*
X161065467Y-63016216D01*
X161102859Y-63057744D01*
X161134228Y-63092582D01*
X161169244Y-63161303D01*
X161172500Y-63192283D01*
X161172500Y-64430495D01*
X161170647Y-64447280D01*
X161171209Y-64447334D01*
X161170326Y-64456670D01*
X161172500Y-64525814D01*
X161172500Y-64555355D01*
X161173296Y-64561657D01*
X161173845Y-64568645D01*
X161175290Y-64614620D01*
X161175292Y-64614634D01*
X161180331Y-64631978D01*
X161185072Y-64654870D01*
X161187335Y-64672789D01*
X161187337Y-64672796D01*
X161204273Y-64715570D01*
X161206547Y-64722212D01*
X161219382Y-64766390D01*
X161228578Y-64781940D01*
X161238861Y-64802930D01*
X161245514Y-64819732D01*
X161252083Y-64828773D01*
X161272558Y-64856956D01*
X161276410Y-64862820D01*
X161299830Y-64902420D01*
X161312606Y-64915196D01*
X161327786Y-64932970D01*
X161338405Y-64947586D01*
X161338410Y-64947591D01*
X161365836Y-64970279D01*
X161410516Y-65033147D01*
X161417776Y-65109933D01*
X161385670Y-65180061D01*
X161381591Y-65184787D01*
X161319469Y-65253780D01*
X161224822Y-65417714D01*
X161224819Y-65417721D01*
X161166325Y-65597745D01*
X161146540Y-65786000D01*
X161166325Y-65974254D01*
X161214823Y-66123513D01*
X161224821Y-66154284D01*
X161319110Y-66317598D01*
X161319469Y-66318219D01*
X161354852Y-66357515D01*
X161425356Y-66435817D01*
X161453166Y-66480673D01*
X161458275Y-66493578D01*
X161460548Y-66500217D01*
X161473382Y-66544390D01*
X161482578Y-66559940D01*
X161492861Y-66580930D01*
X161499514Y-66597732D01*
X161516071Y-66620521D01*
X161526558Y-66634956D01*
X161530410Y-66640820D01*
X161553830Y-66680420D01*
X161561309Y-66687899D01*
X161566606Y-66693196D01*
X161581786Y-66710970D01*
X161587887Y-66719368D01*
X161592406Y-66725587D01*
X161627856Y-66754914D01*
X161633044Y-66759635D01*
X165579938Y-70706529D01*
X165618502Y-70773324D01*
X165618502Y-70850452D01*
X165579938Y-70917247D01*
X165513143Y-70955811D01*
X165436015Y-70955811D01*
X165402803Y-70942461D01*
X165400868Y-70941397D01*
X165389859Y-70935345D01*
X165370321Y-70922511D01*
X165356049Y-70911440D01*
X165356047Y-70911439D01*
X165356045Y-70911437D01*
X165313816Y-70893163D01*
X165307520Y-70890078D01*
X165267205Y-70867916D01*
X165267204Y-70867915D01*
X165267203Y-70867915D01*
X165249710Y-70863424D01*
X165227593Y-70855851D01*
X165211009Y-70848675D01*
X165211007Y-70848674D01*
X165211006Y-70848674D01*
X165165562Y-70841476D01*
X165158688Y-70840052D01*
X165136124Y-70834259D01*
X165114132Y-70828613D01*
X165114130Y-70828613D01*
X165096067Y-70828613D01*
X165072760Y-70826779D01*
X165054917Y-70823953D01*
X165054916Y-70823953D01*
X165009117Y-70828282D01*
X165002102Y-70828613D01*
X164188818Y-70828613D01*
X164114318Y-70808651D01*
X164083459Y-70784972D01*
X159673141Y-66374654D01*
X159634577Y-66307859D01*
X159629500Y-66269295D01*
X159629500Y-63954283D01*
X159649462Y-63879783D01*
X159667772Y-63854582D01*
X159692293Y-63827349D01*
X159736533Y-63778216D01*
X159831179Y-63614284D01*
X159889674Y-63434256D01*
X159909460Y-63246000D01*
X159889674Y-63057744D01*
X159831179Y-62877716D01*
X159796916Y-62818372D01*
X159776954Y-62743873D01*
X159796916Y-62669373D01*
X159835478Y-62602583D01*
X159893973Y-62422555D01*
X159910695Y-62263451D01*
X159938334Y-62191448D01*
X159953512Y-62173675D01*
X161231048Y-60896141D01*
X161297843Y-60857577D01*
X161336407Y-60852500D01*
X163421893Y-60852500D01*
X163496393Y-60872462D01*
G37*
%TD.AperFunction*%
%TA.AperFunction,Conductor*%
G36*
X204994641Y-47753137D02*
G01*
X205095962Y-47766476D01*
X205133529Y-47776542D01*
X205217878Y-47811480D01*
X205251560Y-47830927D01*
X205323994Y-47886508D01*
X205351491Y-47914005D01*
X205407071Y-47986437D01*
X205426519Y-48020122D01*
X205461456Y-48104467D01*
X205471523Y-48142038D01*
X205484862Y-48243353D01*
X205485500Y-48253087D01*
X205485500Y-75444911D01*
X205484862Y-75454646D01*
X205471523Y-75555961D01*
X205461456Y-75593532D01*
X205426519Y-75677877D01*
X205407071Y-75711562D01*
X205351495Y-75783990D01*
X205323990Y-75811495D01*
X205251562Y-75867071D01*
X205217877Y-75886519D01*
X205133532Y-75921456D01*
X205095961Y-75931523D01*
X205047007Y-75937968D01*
X204994640Y-75944862D01*
X204984913Y-75945500D01*
X147821087Y-75945500D01*
X147811359Y-75944862D01*
X147751124Y-75936932D01*
X147710038Y-75931523D01*
X147672467Y-75921456D01*
X147588122Y-75886519D01*
X147554437Y-75867071D01*
X147482005Y-75811491D01*
X147454508Y-75783994D01*
X147398927Y-75711560D01*
X147379480Y-75677877D01*
X147344543Y-75593532D01*
X147334476Y-75555959D01*
X147321138Y-75454645D01*
X147320500Y-75444910D01*
X147320500Y-71260863D01*
X149525500Y-71260863D01*
X149525502Y-71260888D01*
X149531908Y-71320478D01*
X149531909Y-71320484D01*
X149582202Y-71455329D01*
X149582204Y-71455333D01*
X149668452Y-71570544D01*
X149668455Y-71570547D01*
X149783666Y-71656795D01*
X149783670Y-71656797D01*
X149918517Y-71707091D01*
X149978114Y-71713499D01*
X149978118Y-71713499D01*
X149978127Y-71713500D01*
X151773872Y-71713499D01*
X151833483Y-71707091D01*
X151929447Y-71671298D01*
X151968329Y-71656797D01*
X151968333Y-71656795D01*
X152025938Y-71613671D01*
X152083546Y-71570546D01*
X152169796Y-71455331D01*
X152220091Y-71320483D01*
X152221823Y-71304370D01*
X152226499Y-71260885D01*
X152226499Y-71260882D01*
X152226500Y-71260873D01*
X152226499Y-69465128D01*
X152220091Y-69405517D01*
X152188138Y-69319847D01*
X152169797Y-69270670D01*
X152169795Y-69270666D01*
X152083547Y-69155455D01*
X152083544Y-69155452D01*
X151968333Y-69069204D01*
X151968329Y-69069202D01*
X151833482Y-69018908D01*
X151773876Y-69012500D01*
X149978136Y-69012500D01*
X149978111Y-69012502D01*
X149918521Y-69018908D01*
X149918515Y-69018909D01*
X149783670Y-69069202D01*
X149783666Y-69069204D01*
X149668455Y-69155452D01*
X149668452Y-69155455D01*
X149582204Y-69270666D01*
X149582202Y-69270670D01*
X149531908Y-69405517D01*
X149525500Y-69465114D01*
X149525500Y-71260863D01*
X147320500Y-71260863D01*
X147320500Y-60616000D01*
X152160723Y-60616000D01*
X152179793Y-60833978D01*
X152236424Y-61045328D01*
X152236425Y-61045330D01*
X152328894Y-61243633D01*
X152328897Y-61243638D01*
X152328898Y-61243639D01*
X152454402Y-61422877D01*
X152609123Y-61577598D01*
X152721458Y-61656256D01*
X152788361Y-61703102D01*
X152788366Y-61703105D01*
X152871201Y-61741731D01*
X152986670Y-61795575D01*
X153198023Y-61852207D01*
X153416000Y-61871277D01*
X153633977Y-61852207D01*
X153845330Y-61795575D01*
X154043639Y-61703102D01*
X154222877Y-61577598D01*
X154318141Y-61482334D01*
X154384936Y-61443770D01*
X154462064Y-61443770D01*
X154528859Y-61482334D01*
X154567423Y-61549129D01*
X154572500Y-61587693D01*
X154572500Y-63510831D01*
X154565208Y-63556873D01*
X154562325Y-63565743D01*
X154542540Y-63754000D01*
X154562325Y-63942254D01*
X154562326Y-63942256D01*
X154620821Y-64122284D01*
X154712452Y-64280994D01*
X154715469Y-64286219D01*
X154789366Y-64368289D01*
X154842129Y-64426888D01*
X154995270Y-64538151D01*
X155168197Y-64615144D01*
X155309315Y-64645139D01*
X155353352Y-64654500D01*
X155353354Y-64654500D01*
X155542648Y-64654500D01*
X155582004Y-64646134D01*
X155727803Y-64615144D01*
X155900730Y-64538151D01*
X156053871Y-64426888D01*
X156167627Y-64300550D01*
X156180531Y-64286219D01*
X156183548Y-64280994D01*
X156275179Y-64122284D01*
X156333674Y-63942256D01*
X156353460Y-63754000D01*
X156333674Y-63565744D01*
X156330792Y-63556873D01*
X156323500Y-63510831D01*
X156323500Y-59758928D01*
X156343462Y-59684428D01*
X156398000Y-59629890D01*
X156472500Y-59609928D01*
X156533101Y-59622809D01*
X156692197Y-59693644D01*
X156810581Y-59718807D01*
X156877352Y-59733000D01*
X156877354Y-59733000D01*
X157066648Y-59733000D01*
X157147863Y-59715737D01*
X157182521Y-59708370D01*
X157259543Y-59712406D01*
X157324228Y-59754413D01*
X157359244Y-59823135D01*
X157362500Y-59854114D01*
X157362500Y-60759715D01*
X157342538Y-60834215D01*
X157324229Y-60859415D01*
X157255468Y-60935782D01*
X157160822Y-61099714D01*
X157160819Y-61099721D01*
X157102325Y-61279745D01*
X157082540Y-61468000D01*
X157102325Y-61656254D01*
X157147423Y-61795050D01*
X157160821Y-61836284D01*
X157171261Y-61854366D01*
X157255469Y-62000220D01*
X157359462Y-62115714D01*
X157382129Y-62140888D01*
X157535270Y-62252151D01*
X157708197Y-62329144D01*
X157838874Y-62356920D01*
X157893352Y-62368500D01*
X157996807Y-62368500D01*
X158071307Y-62388462D01*
X158125845Y-62443000D01*
X158138513Y-62471455D01*
X158181120Y-62602583D01*
X158210403Y-62653303D01*
X158215382Y-62661926D01*
X158235344Y-62736427D01*
X158215382Y-62810925D01*
X158176824Y-62877709D01*
X158176819Y-62877721D01*
X158118325Y-63057745D01*
X158098540Y-63246000D01*
X158118325Y-63434254D01*
X158166072Y-63581202D01*
X158176821Y-63614284D01*
X158248364Y-63738200D01*
X158271467Y-63778216D01*
X158271468Y-63778217D01*
X158340228Y-63854582D01*
X158375244Y-63923303D01*
X158378500Y-63954283D01*
X158378500Y-66504599D01*
X158376647Y-66521384D01*
X158377209Y-66521438D01*
X158376326Y-66530774D01*
X158378500Y-66599918D01*
X158378500Y-66629459D01*
X158379296Y-66635761D01*
X158379845Y-66642749D01*
X158381290Y-66688724D01*
X158381292Y-66688738D01*
X158386331Y-66706082D01*
X158391072Y-66728974D01*
X158393335Y-66746893D01*
X158393337Y-66746900D01*
X158410273Y-66789674D01*
X158412544Y-66796307D01*
X158425382Y-66840494D01*
X158431300Y-66850502D01*
X158434578Y-66856044D01*
X158444861Y-66877034D01*
X158451514Y-66893836D01*
X158456824Y-66901144D01*
X158478558Y-66931060D01*
X158482410Y-66936924D01*
X158505830Y-66976524D01*
X158514226Y-66984920D01*
X158518606Y-66989300D01*
X158533786Y-67007074D01*
X158544406Y-67021691D01*
X158579856Y-67051018D01*
X158585044Y-67055739D01*
X162845612Y-71316307D01*
X162884176Y-71383102D01*
X162884176Y-71460230D01*
X162859535Y-71510956D01*
X162840206Y-71536776D01*
X162840202Y-71536783D01*
X162789908Y-71671630D01*
X162783500Y-71731227D01*
X162783500Y-73426976D01*
X162783502Y-73427001D01*
X162789908Y-73486591D01*
X162789909Y-73486597D01*
X162840202Y-73621442D01*
X162840204Y-73621446D01*
X162926452Y-73736657D01*
X162926455Y-73736660D01*
X163041666Y-73822908D01*
X163041670Y-73822910D01*
X163176517Y-73873204D01*
X163236114Y-73879612D01*
X163236118Y-73879612D01*
X163236127Y-73879613D01*
X164931872Y-73879612D01*
X164991483Y-73873204D01*
X165107775Y-73829830D01*
X165126329Y-73822910D01*
X165126333Y-73822908D01*
X165183938Y-73779784D01*
X165241546Y-73736659D01*
X165327796Y-73621444D01*
X165378091Y-73486596D01*
X165379823Y-73470483D01*
X165384499Y-73426998D01*
X165384499Y-73426995D01*
X165384500Y-73426986D01*
X165384499Y-72656499D01*
X165404461Y-72582000D01*
X165458999Y-72527462D01*
X165533499Y-72507500D01*
X172236500Y-72507500D01*
X172311000Y-72527462D01*
X172365538Y-72582000D01*
X172385500Y-72656500D01*
X172385500Y-74049863D01*
X172385502Y-74049888D01*
X172391908Y-74109478D01*
X172391909Y-74109484D01*
X172442202Y-74244329D01*
X172442204Y-74244333D01*
X172528452Y-74359544D01*
X172528455Y-74359547D01*
X172643666Y-74445795D01*
X172643670Y-74445797D01*
X172778517Y-74496091D01*
X172838114Y-74502499D01*
X172838118Y-74502499D01*
X172838127Y-74502500D01*
X174633872Y-74502499D01*
X174693483Y-74496091D01*
X174789447Y-74460298D01*
X174828329Y-74445797D01*
X174828333Y-74445795D01*
X174907814Y-74386295D01*
X174943546Y-74359546D01*
X175029796Y-74244331D01*
X175029797Y-74244329D01*
X175029798Y-74244327D01*
X175065215Y-74149367D01*
X175109953Y-74086540D01*
X175180110Y-74054498D01*
X175256889Y-74061829D01*
X175310180Y-74096076D01*
X175404599Y-74190495D01*
X175598170Y-74326035D01*
X175812337Y-74425903D01*
X176040592Y-74487063D01*
X176276000Y-74507659D01*
X176511408Y-74487063D01*
X176739663Y-74425903D01*
X176953830Y-74326035D01*
X177147401Y-74190495D01*
X177314495Y-74023401D01*
X177423947Y-73867086D01*
X177483030Y-73817511D01*
X177558986Y-73804118D01*
X177631463Y-73830497D01*
X177668051Y-73867085D01*
X177777505Y-74023401D01*
X177944599Y-74190495D01*
X178138170Y-74326035D01*
X178352337Y-74425903D01*
X178580592Y-74487063D01*
X178816000Y-74507659D01*
X179051408Y-74487063D01*
X179279663Y-74425903D01*
X179493830Y-74326035D01*
X179687401Y-74190495D01*
X179854495Y-74023401D01*
X179963947Y-73867086D01*
X180023030Y-73817511D01*
X180098986Y-73804118D01*
X180171463Y-73830497D01*
X180208051Y-73867085D01*
X180317505Y-74023401D01*
X180484599Y-74190495D01*
X180678170Y-74326035D01*
X180892337Y-74425903D01*
X181120592Y-74487063D01*
X181356000Y-74507659D01*
X181591408Y-74487063D01*
X181819663Y-74425903D01*
X182033830Y-74326035D01*
X182227401Y-74190495D01*
X182394495Y-74023401D01*
X182503947Y-73867086D01*
X182563030Y-73817511D01*
X182638986Y-73804118D01*
X182711463Y-73830497D01*
X182748051Y-73867085D01*
X182857505Y-74023401D01*
X183024599Y-74190495D01*
X183218170Y-74326035D01*
X183432337Y-74425903D01*
X183660592Y-74487063D01*
X183896000Y-74507659D01*
X184131408Y-74487063D01*
X184359663Y-74425903D01*
X184573830Y-74326035D01*
X184767401Y-74190495D01*
X184934495Y-74023401D01*
X185043947Y-73867086D01*
X185103030Y-73817511D01*
X185178986Y-73804118D01*
X185251463Y-73830497D01*
X185288051Y-73867085D01*
X185397505Y-74023401D01*
X185564599Y-74190495D01*
X185758170Y-74326035D01*
X185972337Y-74425903D01*
X186200592Y-74487063D01*
X186436000Y-74507659D01*
X186671408Y-74487063D01*
X186899663Y-74425903D01*
X187113830Y-74326035D01*
X187307401Y-74190495D01*
X187474495Y-74023401D01*
X187583947Y-73867086D01*
X187643030Y-73817511D01*
X187718986Y-73804118D01*
X187791463Y-73830497D01*
X187828051Y-73867085D01*
X187937505Y-74023401D01*
X188104599Y-74190495D01*
X188298170Y-74326035D01*
X188512337Y-74425903D01*
X188740592Y-74487063D01*
X188976000Y-74507659D01*
X189211408Y-74487063D01*
X189439663Y-74425903D01*
X189653830Y-74326035D01*
X189847401Y-74190495D01*
X190014495Y-74023401D01*
X190123947Y-73867086D01*
X190183030Y-73817511D01*
X190258986Y-73804118D01*
X190331463Y-73830497D01*
X190368051Y-73867085D01*
X190477505Y-74023401D01*
X190644599Y-74190495D01*
X190838170Y-74326035D01*
X191052337Y-74425903D01*
X191280592Y-74487063D01*
X191516000Y-74507659D01*
X191751408Y-74487063D01*
X191979663Y-74425903D01*
X192193830Y-74326035D01*
X192387401Y-74190495D01*
X192554495Y-74023401D01*
X192663947Y-73867086D01*
X192723030Y-73817511D01*
X192798986Y-73804118D01*
X192871463Y-73830497D01*
X192908051Y-73867085D01*
X193017505Y-74023401D01*
X193184599Y-74190495D01*
X193378170Y-74326035D01*
X193592337Y-74425903D01*
X193820592Y-74487063D01*
X194056000Y-74507659D01*
X194291408Y-74487063D01*
X194519663Y-74425903D01*
X194733830Y-74326035D01*
X194927401Y-74190495D01*
X195094495Y-74023401D01*
X195203947Y-73867086D01*
X195263030Y-73817511D01*
X195338986Y-73804118D01*
X195411463Y-73830497D01*
X195448051Y-73867085D01*
X195557505Y-74023401D01*
X195724599Y-74190495D01*
X195918170Y-74326035D01*
X196132337Y-74425903D01*
X196360592Y-74487063D01*
X196596000Y-74507659D01*
X196831408Y-74487063D01*
X197059663Y-74425903D01*
X197273830Y-74326035D01*
X197467401Y-74190495D01*
X197634495Y-74023401D01*
X197743947Y-73867086D01*
X197803030Y-73817511D01*
X197878986Y-73804118D01*
X197951463Y-73830497D01*
X197988051Y-73867085D01*
X198097505Y-74023401D01*
X198264599Y-74190495D01*
X198458170Y-74326035D01*
X198672337Y-74425903D01*
X198900592Y-74487063D01*
X199136000Y-74507659D01*
X199371408Y-74487063D01*
X199599663Y-74425903D01*
X199813830Y-74326035D01*
X200007401Y-74190495D01*
X200174495Y-74023401D01*
X200310035Y-73829830D01*
X200409903Y-73615663D01*
X200466081Y-73406000D01*
X202448659Y-73406000D01*
X202467976Y-73602134D01*
X202525187Y-73790731D01*
X202618083Y-73964526D01*
X202618087Y-73964532D01*
X202618090Y-73964538D01*
X202743117Y-74116883D01*
X202895462Y-74241910D01*
X202895471Y-74241915D01*
X202895473Y-74241916D01*
X203069268Y-74334812D01*
X203069270Y-74334812D01*
X203069273Y-74334814D01*
X203257868Y-74392024D01*
X203454000Y-74411341D01*
X203650132Y-74392024D01*
X203838727Y-74334814D01*
X204012538Y-74241910D01*
X204164883Y-74116883D01*
X204289910Y-73964538D01*
X204382814Y-73790727D01*
X204440024Y-73602132D01*
X204449000Y-73510988D01*
X204449335Y-73508411D01*
X204449475Y-73507197D01*
X204449720Y-73503689D01*
X204454375Y-73456417D01*
X204459341Y-73406000D01*
X204449717Y-73308288D01*
X204449474Y-73304795D01*
X204449472Y-73304782D01*
X204449328Y-73303532D01*
X204448995Y-73300954D01*
X204440024Y-73209868D01*
X204382814Y-73021273D01*
X204382812Y-73021270D01*
X204382812Y-73021268D01*
X204289916Y-72847473D01*
X204289915Y-72847471D01*
X204289910Y-72847462D01*
X204164883Y-72695117D01*
X204012538Y-72570090D01*
X204012532Y-72570087D01*
X204012526Y-72570083D01*
X203838731Y-72477187D01*
X203650134Y-72419976D01*
X203454000Y-72400659D01*
X203257865Y-72419976D01*
X203069268Y-72477187D01*
X202895473Y-72570083D01*
X202895465Y-72570088D01*
X202895463Y-72570089D01*
X202895462Y-72570090D01*
X202880950Y-72582000D01*
X202743117Y-72695117D01*
X202618088Y-72847465D01*
X202618083Y-72847473D01*
X202525187Y-73021268D01*
X202467976Y-73209865D01*
X202448659Y-73406000D01*
X200466081Y-73406000D01*
X200471063Y-73387408D01*
X200491659Y-73152000D01*
X200471063Y-72916592D01*
X200409903Y-72688337D01*
X200310035Y-72474171D01*
X200174495Y-72280599D01*
X200007401Y-72113505D01*
X199813830Y-71977965D01*
X199599663Y-71878097D01*
X199599661Y-71878096D01*
X199371409Y-71816937D01*
X199136000Y-71796341D01*
X198900590Y-71816937D01*
X198672340Y-71878096D01*
X198672339Y-71878096D01*
X198672337Y-71878097D01*
X198458171Y-71977965D01*
X198458168Y-71977966D01*
X198458168Y-71977967D01*
X198264596Y-72113507D01*
X198097506Y-72280597D01*
X197988054Y-72436912D01*
X197928970Y-72486489D01*
X197853014Y-72499882D01*
X197780537Y-72473503D01*
X197743946Y-72436912D01*
X197722651Y-72406500D01*
X197634495Y-72280599D01*
X197467401Y-72113505D01*
X197273830Y-71977965D01*
X197059663Y-71878097D01*
X197059661Y-71878096D01*
X196831409Y-71816937D01*
X196596000Y-71796341D01*
X196360590Y-71816937D01*
X196132340Y-71878096D01*
X196132339Y-71878096D01*
X196132337Y-71878097D01*
X195918171Y-71977965D01*
X195918168Y-71977966D01*
X195918168Y-71977967D01*
X195724596Y-72113507D01*
X195557506Y-72280597D01*
X195448054Y-72436912D01*
X195388970Y-72486489D01*
X195313014Y-72499882D01*
X195240537Y-72473503D01*
X195203946Y-72436912D01*
X195182651Y-72406500D01*
X195094495Y-72280599D01*
X194927401Y-72113505D01*
X194733830Y-71977965D01*
X194519663Y-71878097D01*
X194519661Y-71878096D01*
X194291409Y-71816937D01*
X194056000Y-71796341D01*
X193820590Y-71816937D01*
X193592340Y-71878096D01*
X193592339Y-71878096D01*
X193592337Y-71878097D01*
X193378171Y-71977965D01*
X193378168Y-71977966D01*
X193378168Y-71977967D01*
X193184596Y-72113507D01*
X193017506Y-72280597D01*
X192908054Y-72436912D01*
X192848970Y-72486489D01*
X192773014Y-72499882D01*
X192700537Y-72473503D01*
X192663946Y-72436912D01*
X192642651Y-72406500D01*
X192554495Y-72280599D01*
X192387401Y-72113505D01*
X192193830Y-71977965D01*
X191979663Y-71878097D01*
X191979661Y-71878096D01*
X191751409Y-71816937D01*
X191516000Y-71796341D01*
X191280590Y-71816937D01*
X191052340Y-71878096D01*
X191052339Y-71878096D01*
X191052337Y-71878097D01*
X190838171Y-71977965D01*
X190838168Y-71977966D01*
X190838168Y-71977967D01*
X190644596Y-72113507D01*
X190477506Y-72280597D01*
X190368054Y-72436912D01*
X190308970Y-72486489D01*
X190233014Y-72499882D01*
X190160537Y-72473503D01*
X190123946Y-72436912D01*
X190102651Y-72406500D01*
X190014495Y-72280599D01*
X189847401Y-72113505D01*
X189653830Y-71977965D01*
X189439663Y-71878097D01*
X189439661Y-71878096D01*
X189211409Y-71816937D01*
X188976000Y-71796341D01*
X188740590Y-71816937D01*
X188512340Y-71878096D01*
X188512339Y-71878096D01*
X188512337Y-71878097D01*
X188298171Y-71977965D01*
X188298168Y-71977966D01*
X188298168Y-71977967D01*
X188104596Y-72113507D01*
X187937506Y-72280597D01*
X187828054Y-72436912D01*
X187768970Y-72486489D01*
X187693014Y-72499882D01*
X187620537Y-72473503D01*
X187583946Y-72436912D01*
X187562651Y-72406500D01*
X187474495Y-72280599D01*
X187307401Y-72113505D01*
X187113830Y-71977965D01*
X186899663Y-71878097D01*
X186899661Y-71878096D01*
X186671409Y-71816937D01*
X186436000Y-71796341D01*
X186200590Y-71816937D01*
X185972340Y-71878096D01*
X185972339Y-71878096D01*
X185972337Y-71878097D01*
X185758171Y-71977965D01*
X185758168Y-71977966D01*
X185758168Y-71977967D01*
X185564596Y-72113507D01*
X185397506Y-72280597D01*
X185288054Y-72436912D01*
X185228970Y-72486489D01*
X185153014Y-72499882D01*
X185080537Y-72473503D01*
X185043946Y-72436912D01*
X185022651Y-72406500D01*
X184934495Y-72280599D01*
X184767401Y-72113505D01*
X184573830Y-71977965D01*
X184359663Y-71878097D01*
X184359661Y-71878096D01*
X184131409Y-71816937D01*
X183938678Y-71800074D01*
X183866201Y-71773694D01*
X183816625Y-71714610D01*
X183803232Y-71638654D01*
X183829612Y-71566177D01*
X183846300Y-71546288D01*
X184897443Y-70495145D01*
X184964236Y-70456583D01*
X185041364Y-70456583D01*
X185108159Y-70495147D01*
X185131835Y-70526002D01*
X185152177Y-70561235D01*
X185195469Y-70636220D01*
X185309497Y-70762859D01*
X185322129Y-70776888D01*
X185475270Y-70888151D01*
X185475271Y-70888151D01*
X185475272Y-70888152D01*
X185486527Y-70893163D01*
X185648197Y-70965144D01*
X185789315Y-70995139D01*
X185833352Y-71004500D01*
X185833354Y-71004500D01*
X186022648Y-71004500D01*
X186062004Y-70996134D01*
X186207803Y-70965144D01*
X186380730Y-70888151D01*
X186533871Y-70776888D01*
X186533879Y-70776879D01*
X186539674Y-70771662D01*
X186540954Y-70773084D01*
X186596825Y-70736796D01*
X186642878Y-70729500D01*
X187874497Y-70729500D01*
X187891283Y-70731353D01*
X187891337Y-70730791D01*
X187900665Y-70731672D01*
X187900667Y-70731673D01*
X187900668Y-70731672D01*
X187900669Y-70731673D01*
X187969814Y-70729500D01*
X187999347Y-70729500D01*
X187999350Y-70729500D01*
X188005641Y-70728704D01*
X188012635Y-70728154D01*
X188017184Y-70728010D01*
X188058627Y-70726709D01*
X188075971Y-70721669D01*
X188098868Y-70716927D01*
X188116792Y-70714664D01*
X188159574Y-70697724D01*
X188166202Y-70695455D01*
X188210390Y-70682618D01*
X188225945Y-70673418D01*
X188246931Y-70663137D01*
X188263732Y-70656486D01*
X188300965Y-70629433D01*
X188306799Y-70625600D01*
X188346420Y-70602170D01*
X188359185Y-70589403D01*
X188376972Y-70574212D01*
X188391581Y-70563598D01*
X188391587Y-70563594D01*
X188420923Y-70528130D01*
X188425624Y-70522964D01*
X189066836Y-69881753D01*
X189080013Y-69871200D01*
X189079652Y-69870763D01*
X189086872Y-69864788D01*
X189086877Y-69864786D01*
X189134226Y-69814364D01*
X189155120Y-69793471D01*
X189159017Y-69788446D01*
X189163555Y-69783132D01*
X189195062Y-69749582D01*
X189203767Y-69733745D01*
X189216596Y-69714214D01*
X189227673Y-69699936D01*
X189245948Y-69657702D01*
X189249032Y-69651408D01*
X189271197Y-69611092D01*
X189275687Y-69593601D01*
X189283261Y-69571478D01*
X189290438Y-69554896D01*
X189297635Y-69509454D01*
X189299056Y-69502585D01*
X189310500Y-69458019D01*
X189310500Y-69439954D01*
X189312334Y-69416646D01*
X189315160Y-69398804D01*
X189312421Y-69369839D01*
X189310831Y-69353003D01*
X189310500Y-69345988D01*
X189310500Y-66850502D01*
X189312354Y-66833715D01*
X189311791Y-66833662D01*
X189312672Y-66824337D01*
X189312673Y-66824333D01*
X189310500Y-66755171D01*
X189310500Y-66725650D01*
X189309705Y-66719363D01*
X189309155Y-66712363D01*
X189308779Y-66700409D01*
X189307710Y-66666373D01*
X189302665Y-66649012D01*
X189297928Y-66626134D01*
X189295664Y-66608208D01*
X189278727Y-66565433D01*
X189276456Y-66558797D01*
X189267461Y-66527839D01*
X189263618Y-66514610D01*
X189254419Y-66499056D01*
X189244138Y-66478070D01*
X189237486Y-66461268D01*
X189210434Y-66424034D01*
X189206590Y-66418182D01*
X189205394Y-66416160D01*
X189190774Y-66391437D01*
X189183171Y-66378581D01*
X189170398Y-66365808D01*
X189155213Y-66348028D01*
X189144596Y-66333415D01*
X189138866Y-66328675D01*
X189126229Y-66318220D01*
X189109144Y-66304086D01*
X189103950Y-66299360D01*
X188962449Y-66157859D01*
X188923885Y-66091064D01*
X188923885Y-66013936D01*
X188962449Y-65947141D01*
X189029244Y-65908577D01*
X189067808Y-65903500D01*
X195005192Y-65903500D01*
X195079692Y-65923462D01*
X195110551Y-65947141D01*
X195142779Y-65979369D01*
X195181343Y-66046164D01*
X195185604Y-66069154D01*
X195202325Y-66228254D01*
X195260819Y-66408278D01*
X195260821Y-66408284D01*
X195274203Y-66431462D01*
X195355469Y-66572220D01*
X195476001Y-66706082D01*
X195482129Y-66712888D01*
X195635270Y-66824151D01*
X195808197Y-66901144D01*
X195948942Y-66931060D01*
X195993352Y-66940500D01*
X195993354Y-66940500D01*
X196182648Y-66940500D01*
X196227058Y-66931060D01*
X196367803Y-66901144D01*
X196540730Y-66824151D01*
X196693871Y-66712888D01*
X196797446Y-66597857D01*
X196820530Y-66572220D01*
X196820531Y-66572218D01*
X196820533Y-66572216D01*
X196915179Y-66408284D01*
X196973674Y-66228256D01*
X196993460Y-66040000D01*
X196973674Y-65851744D01*
X196915179Y-65671716D01*
X196820533Y-65507784D01*
X196820532Y-65507783D01*
X196820530Y-65507779D01*
X196693872Y-65367113D01*
X196665935Y-65346816D01*
X196540730Y-65255849D01*
X196540729Y-65255848D01*
X196540727Y-65255847D01*
X196367805Y-65178857D01*
X196367803Y-65178856D01*
X196254256Y-65154721D01*
X196182648Y-65139500D01*
X196182646Y-65139500D01*
X196133809Y-65139500D01*
X196059309Y-65119538D01*
X196028450Y-65095859D01*
X195828752Y-64896161D01*
X195818195Y-64882984D01*
X195817760Y-64883345D01*
X195811785Y-64876122D01*
X195761364Y-64828772D01*
X195740471Y-64807879D01*
X195735454Y-64803988D01*
X195730118Y-64799430D01*
X195696582Y-64767938D01*
X195680749Y-64759234D01*
X195661208Y-64746398D01*
X195646936Y-64735327D01*
X195646934Y-64735326D01*
X195646932Y-64735324D01*
X195604703Y-64717050D01*
X195598407Y-64713965D01*
X195558092Y-64691803D01*
X195558091Y-64691802D01*
X195558090Y-64691802D01*
X195540597Y-64687311D01*
X195518480Y-64679738D01*
X195501896Y-64672562D01*
X195501894Y-64672561D01*
X195501893Y-64672561D01*
X195456449Y-64665363D01*
X195449575Y-64663939D01*
X195427011Y-64658146D01*
X195405019Y-64652500D01*
X195405017Y-64652500D01*
X195386954Y-64652500D01*
X195363647Y-64650666D01*
X195345804Y-64647840D01*
X195345803Y-64647840D01*
X195300004Y-64652169D01*
X195292989Y-64652500D01*
X191099808Y-64652500D01*
X191025308Y-64632538D01*
X190970770Y-64578000D01*
X190950808Y-64503500D01*
X190970770Y-64429000D01*
X190994449Y-64398141D01*
X191316785Y-64075805D01*
X191643837Y-63748752D01*
X191657013Y-63738200D01*
X191656652Y-63737763D01*
X191663872Y-63731788D01*
X191663877Y-63731786D01*
X191711226Y-63681364D01*
X191732120Y-63660471D01*
X191736017Y-63655446D01*
X191740555Y-63650132D01*
X191772062Y-63616582D01*
X191780767Y-63600745D01*
X191793596Y-63581214D01*
X191804673Y-63566936D01*
X191822947Y-63524703D01*
X191826033Y-63518406D01*
X191830198Y-63510831D01*
X191848197Y-63478092D01*
X191852690Y-63460591D01*
X191860264Y-63438471D01*
X191862089Y-63434254D01*
X191867437Y-63421896D01*
X191874634Y-63376452D01*
X191876056Y-63369586D01*
X191887500Y-63325019D01*
X191887500Y-63306950D01*
X191889335Y-63283639D01*
X191892160Y-63265804D01*
X191887831Y-63220003D01*
X191887500Y-63212988D01*
X191887500Y-62684283D01*
X191907462Y-62609783D01*
X191925772Y-62584582D01*
X191927069Y-62583142D01*
X191994533Y-62508216D01*
X192089179Y-62344284D01*
X192147674Y-62164256D01*
X192167460Y-61976000D01*
X192167459Y-61975999D01*
X192167783Y-61972926D01*
X192195423Y-61900920D01*
X192255363Y-61852382D01*
X192315967Y-61839500D01*
X194055082Y-61839500D01*
X194129582Y-61859462D01*
X194184120Y-61914000D01*
X194196788Y-61942455D01*
X194206689Y-61972926D01*
X194239687Y-62074485D01*
X194244821Y-62090284D01*
X194244822Y-62090285D01*
X194339469Y-62254220D01*
X194442369Y-62368500D01*
X194466129Y-62394888D01*
X194619270Y-62506151D01*
X194792197Y-62583144D01*
X194917525Y-62609783D01*
X194977352Y-62622500D01*
X194977354Y-62622500D01*
X195166648Y-62622500D01*
X195206004Y-62614134D01*
X195351803Y-62583144D01*
X195524730Y-62506151D01*
X195677871Y-62394888D01*
X195767141Y-62295744D01*
X195804530Y-62254220D01*
X195804531Y-62254218D01*
X195804533Y-62254216D01*
X195899179Y-62090284D01*
X195957674Y-61910256D01*
X195967818Y-61813735D01*
X195995458Y-61741731D01*
X196055397Y-61693192D01*
X196131575Y-61681126D01*
X196203581Y-61708766D01*
X196221360Y-61723950D01*
X198098166Y-63600757D01*
X199968779Y-65471370D01*
X200007343Y-65538165D01*
X200011604Y-65561155D01*
X200028325Y-65720254D01*
X200086819Y-65900278D01*
X200086821Y-65900284D01*
X200086822Y-65900285D01*
X200181469Y-66064220D01*
X200286630Y-66181011D01*
X200308129Y-66204888D01*
X200461270Y-66316151D01*
X200634197Y-66393144D01*
X200775315Y-66423139D01*
X200819352Y-66432500D01*
X200819354Y-66432500D01*
X201008648Y-66432500D01*
X201048382Y-66424054D01*
X201193803Y-66393144D01*
X201366730Y-66316151D01*
X201519871Y-66204888D01*
X201642087Y-66069154D01*
X201646530Y-66064220D01*
X201646531Y-66064218D01*
X201646533Y-66064216D01*
X201741179Y-65900284D01*
X201799674Y-65720256D01*
X201819460Y-65532000D01*
X201799674Y-65343744D01*
X201741179Y-65163716D01*
X201646533Y-64999784D01*
X201646532Y-64999783D01*
X201646530Y-64999779D01*
X201519872Y-64859113D01*
X201516903Y-64856956D01*
X201366730Y-64747849D01*
X201366729Y-64747848D01*
X201366727Y-64747847D01*
X201198151Y-64672792D01*
X201193803Y-64670856D01*
X201063846Y-64643233D01*
X201008648Y-64631500D01*
X201008646Y-64631500D01*
X200959809Y-64631500D01*
X200885309Y-64611538D01*
X200854450Y-64587859D01*
X197460450Y-61193859D01*
X197421886Y-61127064D01*
X197421886Y-61049936D01*
X197460450Y-60983141D01*
X197527245Y-60944577D01*
X197565809Y-60939500D01*
X199172773Y-60939500D01*
X199247273Y-60959462D01*
X199301811Y-61014000D01*
X199314477Y-61042450D01*
X199324821Y-61074284D01*
X199379466Y-61168933D01*
X199419469Y-61238220D01*
X199511950Y-61340929D01*
X199546129Y-61378888D01*
X199699270Y-61490151D01*
X199872197Y-61567144D01*
X200013315Y-61597139D01*
X200057352Y-61606500D01*
X200057354Y-61606500D01*
X200246648Y-61606500D01*
X200286004Y-61598134D01*
X200431803Y-61567144D01*
X200604730Y-61490151D01*
X200757871Y-61378888D01*
X200862912Y-61262229D01*
X200884530Y-61238220D01*
X200884531Y-61238218D01*
X200884533Y-61238216D01*
X200979179Y-61074284D01*
X201037674Y-60894256D01*
X201057460Y-60706000D01*
X201037674Y-60517744D01*
X200979179Y-60337716D01*
X200884533Y-60173784D01*
X200884532Y-60173783D01*
X200884530Y-60173779D01*
X200757872Y-60033113D01*
X200696277Y-59988362D01*
X200604730Y-59921849D01*
X200604729Y-59921848D01*
X200604727Y-59921847D01*
X200431805Y-59844857D01*
X200431803Y-59844856D01*
X200325360Y-59822231D01*
X200246648Y-59805500D01*
X200246646Y-59805500D01*
X200176005Y-59805500D01*
X200101505Y-59785538D01*
X200084688Y-59774237D01*
X200080936Y-59771327D01*
X200080935Y-59771326D01*
X200080933Y-59771325D01*
X200080932Y-59771324D01*
X200038703Y-59753050D01*
X200032407Y-59749965D01*
X199992092Y-59727803D01*
X199992091Y-59727802D01*
X199992090Y-59727802D01*
X199974597Y-59723311D01*
X199952480Y-59715738D01*
X199935896Y-59708562D01*
X199935894Y-59708561D01*
X199935893Y-59708561D01*
X199890449Y-59701363D01*
X199883575Y-59699939D01*
X199859054Y-59693644D01*
X199839019Y-59688500D01*
X199839017Y-59688500D01*
X199820954Y-59688500D01*
X199797647Y-59686666D01*
X199779804Y-59683840D01*
X199779803Y-59683840D01*
X199734004Y-59688169D01*
X199726989Y-59688500D01*
X188986592Y-59688500D01*
X188912092Y-59668538D01*
X188857554Y-59614000D01*
X188837592Y-59539500D01*
X188838767Y-59520829D01*
X188839500Y-59515025D01*
X188839500Y-59496950D01*
X188841335Y-59473639D01*
X188844160Y-59455804D01*
X188839831Y-59410003D01*
X188839500Y-59402988D01*
X188839500Y-58692241D01*
X188859462Y-58617741D01*
X188903035Y-58570189D01*
X189085401Y-58442495D01*
X189252495Y-58275401D01*
X189361947Y-58119086D01*
X189421030Y-58069511D01*
X189496986Y-58056118D01*
X189569463Y-58082497D01*
X189606051Y-58119085D01*
X189715505Y-58275401D01*
X189882599Y-58442495D01*
X190076170Y-58578035D01*
X190290337Y-58677903D01*
X190518592Y-58739063D01*
X190754000Y-58759659D01*
X190989408Y-58739063D01*
X191217663Y-58677903D01*
X191431830Y-58578035D01*
X191625401Y-58442495D01*
X191792495Y-58275401D01*
X191901947Y-58119086D01*
X191961030Y-58069511D01*
X192036986Y-58056118D01*
X192109463Y-58082497D01*
X192146051Y-58119085D01*
X192255505Y-58275401D01*
X192422599Y-58442495D01*
X192616170Y-58578035D01*
X192830337Y-58677903D01*
X193058592Y-58739063D01*
X193294000Y-58759659D01*
X193529408Y-58739063D01*
X193757663Y-58677903D01*
X193971830Y-58578035D01*
X194165401Y-58442495D01*
X194332495Y-58275401D01*
X194468035Y-58081830D01*
X194567903Y-57867663D01*
X194629063Y-57639408D01*
X194649659Y-57404000D01*
X194629063Y-57168592D01*
X194567903Y-56940337D01*
X194468035Y-56726171D01*
X194332495Y-56532599D01*
X194165401Y-56365505D01*
X193971830Y-56229965D01*
X193757663Y-56130097D01*
X193757661Y-56130096D01*
X193529409Y-56068937D01*
X193294000Y-56048341D01*
X193058590Y-56068937D01*
X192830340Y-56130096D01*
X192830339Y-56130096D01*
X192830337Y-56130097D01*
X192616171Y-56229965D01*
X192616168Y-56229966D01*
X192616168Y-56229967D01*
X192422596Y-56365507D01*
X192255506Y-56532597D01*
X192255505Y-56532599D01*
X192146908Y-56687693D01*
X192146054Y-56688912D01*
X192086970Y-56738489D01*
X192011014Y-56751882D01*
X191938537Y-56725503D01*
X191901946Y-56688912D01*
X191792495Y-56532599D01*
X191625401Y-56365505D01*
X191431830Y-56229965D01*
X191217663Y-56130097D01*
X191217661Y-56130096D01*
X190989409Y-56068937D01*
X190754000Y-56048341D01*
X190518590Y-56068937D01*
X190290340Y-56130096D01*
X190290339Y-56130096D01*
X190290337Y-56130097D01*
X190076171Y-56229965D01*
X190076168Y-56229966D01*
X190076168Y-56229967D01*
X189882596Y-56365507D01*
X189715506Y-56532597D01*
X189715505Y-56532599D01*
X189606908Y-56687693D01*
X189606054Y-56688912D01*
X189546970Y-56738489D01*
X189471014Y-56751882D01*
X189398537Y-56725503D01*
X189361946Y-56688912D01*
X189252495Y-56532599D01*
X189085401Y-56365505D01*
X188891830Y-56229965D01*
X188677663Y-56130097D01*
X188677661Y-56130096D01*
X188449409Y-56068937D01*
X188214000Y-56048341D01*
X187978590Y-56068937D01*
X187750340Y-56130096D01*
X187750339Y-56130096D01*
X187750337Y-56130097D01*
X187536171Y-56229965D01*
X187536168Y-56229966D01*
X187536168Y-56229967D01*
X187342596Y-56365507D01*
X187175506Y-56532597D01*
X187175505Y-56532599D01*
X187066908Y-56687693D01*
X187066054Y-56688912D01*
X187006970Y-56738489D01*
X186931014Y-56751882D01*
X186858537Y-56725503D01*
X186821946Y-56688912D01*
X186712495Y-56532599D01*
X186545401Y-56365505D01*
X186351830Y-56229965D01*
X186137663Y-56130097D01*
X186137661Y-56130096D01*
X185909409Y-56068937D01*
X185674000Y-56048341D01*
X185438590Y-56068937D01*
X185210340Y-56130096D01*
X185210339Y-56130096D01*
X185210337Y-56130097D01*
X184996171Y-56229965D01*
X184996168Y-56229966D01*
X184996168Y-56229967D01*
X184802596Y-56365507D01*
X184635506Y-56532597D01*
X184635505Y-56532599D01*
X184526908Y-56687693D01*
X184526054Y-56688912D01*
X184466970Y-56738489D01*
X184391014Y-56751882D01*
X184318537Y-56725503D01*
X184281946Y-56688912D01*
X184172495Y-56532599D01*
X184005401Y-56365505D01*
X183811830Y-56229965D01*
X183597663Y-56130097D01*
X183597661Y-56130096D01*
X183369409Y-56068937D01*
X183134000Y-56048341D01*
X182898590Y-56068937D01*
X182670340Y-56130096D01*
X182670339Y-56130096D01*
X182670337Y-56130097D01*
X182456171Y-56229965D01*
X182456168Y-56229966D01*
X182456168Y-56229967D01*
X182262596Y-56365507D01*
X182095506Y-56532597D01*
X182095505Y-56532599D01*
X181986908Y-56687693D01*
X181986054Y-56688912D01*
X181926970Y-56738489D01*
X181851014Y-56751882D01*
X181778537Y-56725503D01*
X181741946Y-56688912D01*
X181632495Y-56532599D01*
X181465401Y-56365505D01*
X181465399Y-56365503D01*
X181283037Y-56237811D01*
X181233460Y-56178728D01*
X181219500Y-56115758D01*
X181219500Y-56094652D01*
X181219500Y-56094650D01*
X181218704Y-56088356D01*
X181218154Y-56081362D01*
X181217116Y-56048341D01*
X181216709Y-56035373D01*
X181211668Y-56018024D01*
X181206926Y-55995122D01*
X181204664Y-55977208D01*
X181204662Y-55977202D01*
X181187726Y-55934427D01*
X181185454Y-55927795D01*
X181172618Y-55883610D01*
X181163419Y-55868056D01*
X181153138Y-55847070D01*
X181146486Y-55830268D01*
X181119434Y-55793034D01*
X181115590Y-55787182D01*
X181092171Y-55747581D01*
X181079397Y-55734807D01*
X181064213Y-55717029D01*
X181053594Y-55702413D01*
X181032932Y-55685320D01*
X181018145Y-55673086D01*
X181012952Y-55668360D01*
X180741757Y-55397167D01*
X180731199Y-55383987D01*
X180730763Y-55384348D01*
X180724786Y-55377123D01*
X180674363Y-55329773D01*
X180653469Y-55308878D01*
X180648454Y-55304988D01*
X180643118Y-55300430D01*
X180609582Y-55268938D01*
X180593749Y-55260234D01*
X180574208Y-55247398D01*
X180559936Y-55236327D01*
X180559934Y-55236326D01*
X180559932Y-55236324D01*
X180517703Y-55218050D01*
X180511407Y-55214965D01*
X180471092Y-55192803D01*
X180471091Y-55192802D01*
X180471090Y-55192802D01*
X180453597Y-55188311D01*
X180431480Y-55180738D01*
X180414896Y-55173562D01*
X180414894Y-55173561D01*
X180414893Y-55173561D01*
X180369449Y-55166363D01*
X180362575Y-55164939D01*
X180340011Y-55159146D01*
X180318019Y-55153500D01*
X180318017Y-55153500D01*
X180299954Y-55153500D01*
X180276647Y-55151666D01*
X180274513Y-55151328D01*
X180258804Y-55148840D01*
X180258803Y-55148840D01*
X180213004Y-55153169D01*
X180205989Y-55153500D01*
X173794102Y-55153500D01*
X173777318Y-55151647D01*
X173777265Y-55152210D01*
X173767940Y-55151328D01*
X173767937Y-55151328D01*
X173698808Y-55153500D01*
X173669254Y-55153500D01*
X173669249Y-55153500D01*
X173669242Y-55153501D01*
X173662939Y-55154296D01*
X173655953Y-55154845D01*
X173609978Y-55156290D01*
X173609974Y-55156291D01*
X173592624Y-55161331D01*
X173569740Y-55166070D01*
X173551820Y-55168334D01*
X173551806Y-55168337D01*
X173509028Y-55185273D01*
X173502389Y-55187546D01*
X173458218Y-55200380D01*
X173458211Y-55200383D01*
X173442659Y-55209580D01*
X173421679Y-55219858D01*
X173404875Y-55226512D01*
X173404867Y-55226516D01*
X173367646Y-55253558D01*
X173361779Y-55257412D01*
X173322184Y-55280829D01*
X173322182Y-55280830D01*
X173309409Y-55293604D01*
X173291638Y-55308782D01*
X173277022Y-55319401D01*
X173277012Y-55319410D01*
X173247689Y-55354855D01*
X173242964Y-55360048D01*
X172884154Y-55718859D01*
X172817359Y-55757423D01*
X172778795Y-55762500D01*
X168885389Y-55762500D01*
X168810889Y-55742538D01*
X168756351Y-55688000D01*
X168736389Y-55613500D01*
X168756351Y-55539000D01*
X168774661Y-55513799D01*
X168880530Y-55396220D01*
X168880531Y-55396218D01*
X168880533Y-55396216D01*
X168975179Y-55232284D01*
X169033674Y-55052256D01*
X169053460Y-54864000D01*
X169033674Y-54675744D01*
X168975179Y-54495716D01*
X168880533Y-54331784D01*
X168869705Y-54319758D01*
X168811771Y-54255415D01*
X168776756Y-54186693D01*
X168773500Y-54155715D01*
X168773500Y-53942803D01*
X168775352Y-53926019D01*
X168774790Y-53925966D01*
X168775671Y-53916641D01*
X168775672Y-53916638D01*
X168773500Y-53847508D01*
X168773500Y-53817955D01*
X168772703Y-53811651D01*
X168772154Y-53804663D01*
X168771781Y-53792798D01*
X168770709Y-53758678D01*
X168765668Y-53741331D01*
X168760926Y-53718427D01*
X168758664Y-53700513D01*
X168741726Y-53657732D01*
X168739454Y-53651100D01*
X168726618Y-53606915D01*
X168717419Y-53591361D01*
X168707138Y-53570375D01*
X168700486Y-53553573D01*
X168673434Y-53516339D01*
X168669590Y-53510487D01*
X168641397Y-53462814D01*
X168644105Y-53461212D01*
X168620654Y-53405402D01*
X168630331Y-53328883D01*
X168676972Y-53267455D01*
X168748077Y-53237577D01*
X168768278Y-53236201D01*
X168882575Y-53236201D01*
X168899361Y-53238054D01*
X168899415Y-53237492D01*
X168908743Y-53238373D01*
X168908745Y-53238374D01*
X168908746Y-53238373D01*
X168908747Y-53238374D01*
X168977892Y-53236201D01*
X169007425Y-53236201D01*
X169007428Y-53236201D01*
X169013719Y-53235405D01*
X169020713Y-53234855D01*
X169025262Y-53234711D01*
X169066705Y-53233410D01*
X169084049Y-53228370D01*
X169106946Y-53223628D01*
X169124870Y-53221365D01*
X169167652Y-53204425D01*
X169174280Y-53202156D01*
X169218468Y-53189319D01*
X169229873Y-53182573D01*
X169304159Y-53161831D01*
X169378864Y-53181011D01*
X169433971Y-53234973D01*
X169454714Y-53309260D01*
X169437129Y-53381061D01*
X169393186Y-53463272D01*
X169335976Y-53651865D01*
X169316659Y-53848000D01*
X169335976Y-54044134D01*
X169393187Y-54232731D01*
X169486083Y-54406526D01*
X169486087Y-54406532D01*
X169486090Y-54406538D01*
X169611117Y-54558883D01*
X169763462Y-54683910D01*
X169763471Y-54683915D01*
X169763473Y-54683916D01*
X169937268Y-54776812D01*
X169937270Y-54776812D01*
X169937273Y-54776814D01*
X170125868Y-54834024D01*
X170322000Y-54853341D01*
X170518132Y-54834024D01*
X170706727Y-54776814D01*
X170706733Y-54776810D01*
X170707470Y-54776506D01*
X170707951Y-54776442D01*
X170713732Y-54774689D01*
X170714021Y-54775643D01*
X170783938Y-54766435D01*
X170839107Y-54788900D01*
X170840316Y-54786688D01*
X170849666Y-54791794D01*
X170849669Y-54791796D01*
X170984517Y-54842091D01*
X171005433Y-54844339D01*
X171044114Y-54848499D01*
X171044118Y-54848499D01*
X171044127Y-54848500D01*
X172139872Y-54848499D01*
X172199483Y-54842091D01*
X172317011Y-54798256D01*
X172334329Y-54791797D01*
X172334333Y-54791795D01*
X172397768Y-54744307D01*
X172449546Y-54705546D01*
X172506925Y-54628898D01*
X172535795Y-54590333D01*
X172535797Y-54590329D01*
X172577024Y-54479793D01*
X172586091Y-54455483D01*
X172589718Y-54421745D01*
X172592499Y-54395885D01*
X172592499Y-54395882D01*
X172592500Y-54395873D01*
X172592499Y-53300128D01*
X172586091Y-53240517D01*
X172556743Y-53161831D01*
X172537532Y-53110323D01*
X172530201Y-53033544D01*
X172562242Y-52963386D01*
X172616532Y-52922137D01*
X172769230Y-52854151D01*
X172922371Y-52742888D01*
X173004157Y-52652056D01*
X173049030Y-52602220D01*
X173049031Y-52602218D01*
X173049033Y-52602216D01*
X173143679Y-52438284D01*
X173202174Y-52258256D01*
X173221960Y-52070000D01*
X173202174Y-51881744D01*
X173143679Y-51701716D01*
X173049033Y-51537784D01*
X173049032Y-51537783D01*
X173049030Y-51537779D01*
X172922372Y-51397113D01*
X172904776Y-51384329D01*
X172769230Y-51285849D01*
X172769229Y-51285848D01*
X172769227Y-51285847D01*
X172596305Y-51208857D01*
X172596303Y-51208856D01*
X172489860Y-51186231D01*
X172411148Y-51169500D01*
X172411146Y-51169500D01*
X172221854Y-51169500D01*
X172221852Y-51169500D01*
X172126010Y-51189872D01*
X172036697Y-51208856D01*
X172036695Y-51208856D01*
X172036694Y-51208857D01*
X171863772Y-51285847D01*
X171710631Y-51397110D01*
X171704826Y-51402338D01*
X171703545Y-51400915D01*
X171647675Y-51437204D01*
X171601622Y-51444500D01*
X171148878Y-51444500D01*
X171074378Y-51424538D01*
X171046218Y-51401733D01*
X171045674Y-51402338D01*
X171039874Y-51397115D01*
X171039871Y-51397112D01*
X170886730Y-51285849D01*
X170886729Y-51285848D01*
X170886727Y-51285847D01*
X170713806Y-51208857D01*
X170713804Y-51208856D01*
X170713803Y-51208856D01*
X170658304Y-51197059D01*
X170529812Y-51169747D01*
X170461091Y-51134731D01*
X170419085Y-51070048D01*
X170413919Y-51054149D01*
X170388999Y-50977454D01*
X170294353Y-50813522D01*
X170294352Y-50813521D01*
X170294350Y-50813517D01*
X170167692Y-50672851D01*
X170014547Y-50561585D01*
X169841625Y-50484595D01*
X169841623Y-50484594D01*
X169720337Y-50458814D01*
X169656468Y-50445238D01*
X169656466Y-50445238D01*
X169647500Y-50445238D01*
X169573000Y-50425276D01*
X169518462Y-50370738D01*
X169498500Y-50296238D01*
X169498499Y-49530000D01*
X202448659Y-49530000D01*
X202467976Y-49726134D01*
X202525187Y-49914731D01*
X202618083Y-50088526D01*
X202618087Y-50088532D01*
X202618090Y-50088538D01*
X202743117Y-50240883D01*
X202895462Y-50365910D01*
X202895471Y-50365915D01*
X202895473Y-50365916D01*
X203069268Y-50458812D01*
X203069270Y-50458812D01*
X203069273Y-50458814D01*
X203257868Y-50516024D01*
X203454000Y-50535341D01*
X203650132Y-50516024D01*
X203838727Y-50458814D01*
X204012538Y-50365910D01*
X204164883Y-50240883D01*
X204289910Y-50088538D01*
X204382814Y-49914727D01*
X204440024Y-49726132D01*
X204449000Y-49634988D01*
X204449335Y-49632411D01*
X204449475Y-49631197D01*
X204449720Y-49627689D01*
X204459341Y-49529996D01*
X204459341Y-49529995D01*
X204449718Y-49432297D01*
X204449474Y-49428795D01*
X204449472Y-49428782D01*
X204449328Y-49427532D01*
X204448995Y-49424954D01*
X204444781Y-49382170D01*
X204440024Y-49333868D01*
X204382814Y-49145273D01*
X204382812Y-49145270D01*
X204382812Y-49145268D01*
X204289916Y-48971473D01*
X204289915Y-48971471D01*
X204289910Y-48971462D01*
X204164883Y-48819117D01*
X204012538Y-48694090D01*
X204012532Y-48694087D01*
X204012526Y-48694083D01*
X203838731Y-48601187D01*
X203650134Y-48543976D01*
X203454000Y-48524659D01*
X203257865Y-48543976D01*
X203069268Y-48601187D01*
X202895473Y-48694083D01*
X202895465Y-48694088D01*
X202895463Y-48694089D01*
X202895462Y-48694090D01*
X202743117Y-48819117D01*
X202630011Y-48956937D01*
X202618088Y-48971465D01*
X202618083Y-48971473D01*
X202525187Y-49145268D01*
X202467976Y-49333865D01*
X202448659Y-49530000D01*
X169498499Y-49530000D01*
X169498499Y-49394136D01*
X169498499Y-49394128D01*
X169492091Y-49334517D01*
X169477216Y-49294634D01*
X169441797Y-49199670D01*
X169441795Y-49199666D01*
X169355547Y-49084455D01*
X169355544Y-49084452D01*
X169240333Y-48998204D01*
X169240329Y-48998202D01*
X169105482Y-48947908D01*
X169045876Y-48941500D01*
X167250136Y-48941500D01*
X167250111Y-48941502D01*
X167190521Y-48947908D01*
X167190515Y-48947909D01*
X167055670Y-48998202D01*
X167055666Y-48998204D01*
X166940455Y-49084452D01*
X166940452Y-49084455D01*
X166854204Y-49199666D01*
X166854203Y-49199668D01*
X166818784Y-49294634D01*
X166774045Y-49357461D01*
X166703887Y-49389501D01*
X166627108Y-49382170D01*
X166573819Y-49347923D01*
X166479402Y-49253506D01*
X166402517Y-49199670D01*
X166285830Y-49117965D01*
X166071663Y-49018097D01*
X166071661Y-49018096D01*
X165843409Y-48956937D01*
X165608000Y-48936341D01*
X165372590Y-48956937D01*
X165144340Y-49018096D01*
X165144339Y-49018096D01*
X165144337Y-49018097D01*
X164930171Y-49117965D01*
X164930168Y-49117966D01*
X164930168Y-49117967D01*
X164736596Y-49253507D01*
X164569506Y-49420597D01*
X164460054Y-49576912D01*
X164400970Y-49626489D01*
X164325014Y-49639882D01*
X164252537Y-49613503D01*
X164215946Y-49576912D01*
X164183095Y-49529996D01*
X164106495Y-49420599D01*
X163939401Y-49253505D01*
X163745830Y-49117965D01*
X163531663Y-49018097D01*
X163531661Y-49018096D01*
X163303409Y-48956937D01*
X163068000Y-48936341D01*
X162832590Y-48956937D01*
X162604340Y-49018096D01*
X162604339Y-49018096D01*
X162604337Y-49018097D01*
X162390171Y-49117965D01*
X162390168Y-49117966D01*
X162390168Y-49117967D01*
X162196596Y-49253507D01*
X162029507Y-49420596D01*
X162029505Y-49420599D01*
X161893965Y-49614171D01*
X161798000Y-49819967D01*
X161794096Y-49828340D01*
X161732937Y-50056590D01*
X161712341Y-50292000D01*
X161732937Y-50527409D01*
X161771907Y-50672851D01*
X161794097Y-50755663D01*
X161893965Y-50969830D01*
X162025361Y-51157482D01*
X162029506Y-51163402D01*
X162123871Y-51257767D01*
X162162435Y-51324562D01*
X162166696Y-51347551D01*
X162182325Y-51496254D01*
X162229844Y-51642500D01*
X162240821Y-51676284D01*
X162240822Y-51676285D01*
X162335469Y-51840220D01*
X162410340Y-51923371D01*
X162462129Y-51980888D01*
X162615270Y-52092151D01*
X162788197Y-52169144D01*
X162929315Y-52199139D01*
X162973352Y-52208500D01*
X162973354Y-52208500D01*
X163162648Y-52208500D01*
X163217879Y-52196759D01*
X163347803Y-52169144D01*
X163491013Y-52105381D01*
X163551617Y-52092500D01*
X166181575Y-52092500D01*
X166256075Y-52112462D01*
X166269154Y-52120956D01*
X166281449Y-52129889D01*
X166350840Y-52160784D01*
X166454377Y-52206882D01*
X166545564Y-52226264D01*
X166614286Y-52261280D01*
X166656292Y-52325965D01*
X166660329Y-52402987D01*
X166625313Y-52471709D01*
X166619944Y-52477367D01*
X164935154Y-54162158D01*
X164868359Y-54200722D01*
X164829795Y-54205799D01*
X162436468Y-54205799D01*
X162361968Y-54185837D01*
X162307430Y-54131299D01*
X162276533Y-54077784D01*
X162276532Y-54077783D01*
X162246232Y-54044132D01*
X162154995Y-53942803D01*
X162149872Y-53937113D01*
X162134602Y-53926019D01*
X161996730Y-53825849D01*
X161996729Y-53825848D01*
X161996727Y-53825847D01*
X161823805Y-53748857D01*
X161823803Y-53748856D01*
X161715323Y-53725798D01*
X161638648Y-53709500D01*
X161638646Y-53709500D01*
X161449354Y-53709500D01*
X161449352Y-53709500D01*
X161372677Y-53725798D01*
X161264197Y-53748856D01*
X161264195Y-53748856D01*
X161264194Y-53748857D01*
X161091272Y-53825847D01*
X160938127Y-53937113D01*
X160811469Y-54077779D01*
X160716822Y-54241714D01*
X160716819Y-54241721D01*
X160658325Y-54421745D01*
X160638540Y-54610000D01*
X160658325Y-54798254D01*
X160682724Y-54873345D01*
X160716821Y-54978284D01*
X160716822Y-54978285D01*
X160811469Y-55142220D01*
X160915190Y-55257412D01*
X160938129Y-55282888D01*
X161091270Y-55394151D01*
X161264197Y-55471144D01*
X161390654Y-55498023D01*
X161449352Y-55510500D01*
X161449354Y-55510500D01*
X161638648Y-55510500D01*
X161678004Y-55502134D01*
X161823803Y-55471144D01*
X161827087Y-55469682D01*
X161830606Y-55468933D01*
X161831234Y-55468730D01*
X161831255Y-55468795D01*
X161887693Y-55456799D01*
X165065101Y-55456799D01*
X165081887Y-55458652D01*
X165081941Y-55458090D01*
X165091269Y-55458971D01*
X165091271Y-55458972D01*
X165091272Y-55458971D01*
X165091273Y-55458972D01*
X165160418Y-55456799D01*
X165189951Y-55456799D01*
X165189954Y-55456799D01*
X165196245Y-55456003D01*
X165203239Y-55455453D01*
X165207788Y-55455309D01*
X165249231Y-55454008D01*
X165266575Y-55448968D01*
X165289472Y-55444226D01*
X165307396Y-55441963D01*
X165350178Y-55425023D01*
X165356806Y-55422754D01*
X165400994Y-55409917D01*
X165416549Y-55400717D01*
X165437535Y-55390436D01*
X165454336Y-55383785D01*
X165491569Y-55356732D01*
X165497403Y-55352899D01*
X165537024Y-55329469D01*
X165549789Y-55316702D01*
X165567576Y-55301511D01*
X165582185Y-55290897D01*
X165582191Y-55290893D01*
X165611527Y-55255429D01*
X165616228Y-55250263D01*
X165716820Y-55149671D01*
X165783613Y-55111109D01*
X165860741Y-55111109D01*
X165927536Y-55149673D01*
X165951214Y-55180531D01*
X165962675Y-55200382D01*
X165983418Y-55236311D01*
X166091857Y-55356744D01*
X166110079Y-55376981D01*
X166263220Y-55488244D01*
X166436147Y-55565237D01*
X166577265Y-55595232D01*
X166621302Y-55604593D01*
X166621304Y-55604593D01*
X166670142Y-55604593D01*
X166744642Y-55624555D01*
X166775500Y-55648233D01*
X167357231Y-56229965D01*
X167897104Y-56769838D01*
X167907661Y-56783014D01*
X167908096Y-56782655D01*
X167914068Y-56789874D01*
X167914070Y-56789876D01*
X167914071Y-56789877D01*
X167964492Y-56837226D01*
X167985386Y-56858120D01*
X167990401Y-56862010D01*
X167995734Y-56866565D01*
X168029275Y-56898062D01*
X168040632Y-56904305D01*
X168045111Y-56906768D01*
X168064649Y-56919602D01*
X168078921Y-56930673D01*
X168121160Y-56948951D01*
X168127427Y-56952020D01*
X168167765Y-56974197D01*
X168185263Y-56978689D01*
X168207378Y-56986260D01*
X168223961Y-56993437D01*
X168258331Y-56998880D01*
X168269394Y-57000633D01*
X168276271Y-57002057D01*
X168297325Y-57007462D01*
X168320838Y-57013500D01*
X168338902Y-57013500D01*
X168362209Y-57015334D01*
X168365904Y-57015919D01*
X168380053Y-57018160D01*
X168412895Y-57015055D01*
X168425853Y-57013831D01*
X168432868Y-57013500D01*
X171866191Y-57013500D01*
X171940691Y-57033462D01*
X171995229Y-57088000D01*
X172015191Y-57162500D01*
X171995229Y-57237000D01*
X171971550Y-57267859D01*
X171491781Y-57747628D01*
X171424986Y-57786192D01*
X171386422Y-57791269D01*
X168098074Y-57791269D01*
X168023574Y-57771307D01*
X167995414Y-57748502D01*
X167994870Y-57749107D01*
X167989070Y-57743884D01*
X167989067Y-57743881D01*
X167835926Y-57632618D01*
X167835925Y-57632617D01*
X167835923Y-57632616D01*
X167663001Y-57555626D01*
X167662999Y-57555625D01*
X167556556Y-57533000D01*
X167477844Y-57516269D01*
X167477842Y-57516269D01*
X167288550Y-57516269D01*
X167288548Y-57516269D01*
X167188588Y-57537516D01*
X167103393Y-57555625D01*
X167103391Y-57555625D01*
X167103390Y-57555626D01*
X166934425Y-57630855D01*
X166858247Y-57642921D01*
X166813219Y-57630855D01*
X166663934Y-57564389D01*
X166622707Y-57555626D01*
X166478779Y-57525033D01*
X166478777Y-57525033D01*
X166420973Y-57525033D01*
X166346473Y-57505071D01*
X166291935Y-57450533D01*
X166279269Y-57422086D01*
X166241166Y-57304816D01*
X166146520Y-57140884D01*
X166146519Y-57140883D01*
X166146517Y-57140879D01*
X166019859Y-57000213D01*
X166010531Y-56993436D01*
X165866717Y-56888949D01*
X165866716Y-56888948D01*
X165866714Y-56888947D01*
X165693792Y-56811957D01*
X165693790Y-56811956D01*
X165587347Y-56789331D01*
X165508635Y-56772600D01*
X165508633Y-56772600D01*
X165319341Y-56772600D01*
X165319339Y-56772600D01*
X165238058Y-56789877D01*
X165134184Y-56811956D01*
X165134182Y-56811956D01*
X165134181Y-56811957D01*
X164961257Y-56888948D01*
X164862848Y-56960446D01*
X164790843Y-56988086D01*
X164714671Y-56976023D01*
X164707310Y-56972746D01*
X164707306Y-56972744D01*
X164707302Y-56972743D01*
X164522151Y-56933388D01*
X164522149Y-56933388D01*
X164332857Y-56933388D01*
X164332855Y-56933388D01*
X164244320Y-56952207D01*
X164147700Y-56972744D01*
X164147698Y-56972744D01*
X164147697Y-56972745D01*
X163974775Y-57049735D01*
X163821632Y-57160999D01*
X163745420Y-57245641D01*
X163680734Y-57287647D01*
X163603717Y-57291684D01*
X163569713Y-57284457D01*
X163569711Y-57284457D01*
X163380419Y-57284457D01*
X163380417Y-57284457D01*
X163299428Y-57301672D01*
X163195262Y-57323813D01*
X163195260Y-57323813D01*
X163195259Y-57323814D01*
X163022337Y-57400804D01*
X162869192Y-57512070D01*
X162742533Y-57652738D01*
X162656964Y-57800947D01*
X162602426Y-57855484D01*
X162558907Y-57872190D01*
X162411916Y-57903434D01*
X162385078Y-57909139D01*
X162385077Y-57909139D01*
X162385074Y-57909140D01*
X162212153Y-57986130D01*
X162059008Y-58097396D01*
X161932350Y-58238062D01*
X161837703Y-58401997D01*
X161837700Y-58402004D01*
X161789491Y-58550375D01*
X161747484Y-58615060D01*
X161708389Y-58640449D01*
X161532335Y-58718834D01*
X161379191Y-58830099D01*
X161252533Y-58970765D01*
X161157886Y-59134700D01*
X161157883Y-59134707D01*
X161099389Y-59314731D01*
X161083046Y-59470230D01*
X161055405Y-59542235D01*
X160995466Y-59590773D01*
X160939543Y-59603581D01*
X160916970Y-59604290D01*
X160916967Y-59604291D01*
X160899617Y-59609331D01*
X160876733Y-59614070D01*
X160858808Y-59616335D01*
X160858806Y-59616335D01*
X160816019Y-59633274D01*
X160809380Y-59635547D01*
X160765214Y-59648380D01*
X160765205Y-59648384D01*
X160749662Y-59657576D01*
X160728673Y-59667859D01*
X160711865Y-59674514D01*
X160674647Y-59701553D01*
X160668782Y-59705405D01*
X160629176Y-59728830D01*
X160616401Y-59741605D01*
X160598634Y-59756780D01*
X160584009Y-59767407D01*
X160554689Y-59802848D01*
X160549963Y-59808041D01*
X159095776Y-61262229D01*
X159028981Y-61300793D01*
X158951853Y-61300793D01*
X158885058Y-61262229D01*
X158848710Y-61202914D01*
X158845768Y-61193859D01*
X158815179Y-61099716D01*
X158720533Y-60935784D01*
X158709705Y-60923758D01*
X158651771Y-60859415D01*
X158616756Y-60790693D01*
X158613500Y-60759715D01*
X158613500Y-60010808D01*
X158633462Y-59936308D01*
X158657141Y-59905449D01*
X158963262Y-59599328D01*
X159282337Y-59280252D01*
X159295513Y-59269700D01*
X159295152Y-59269263D01*
X159302372Y-59263288D01*
X159302377Y-59263286D01*
X159349726Y-59212864D01*
X159370620Y-59191971D01*
X159374517Y-59186946D01*
X159379055Y-59181632D01*
X159410562Y-59148082D01*
X159419267Y-59132245D01*
X159432096Y-59112714D01*
X159443173Y-59098436D01*
X159461448Y-59056202D01*
X159464532Y-59049908D01*
X159486697Y-59009592D01*
X159491187Y-58992101D01*
X159498761Y-58969978D01*
X159505938Y-58953396D01*
X159513135Y-58907954D01*
X159514556Y-58901085D01*
X159526000Y-58856519D01*
X159526000Y-58838454D01*
X159527834Y-58815146D01*
X159530660Y-58797304D01*
X159527921Y-58768339D01*
X159526331Y-58751503D01*
X159526000Y-58744488D01*
X159526000Y-58008783D01*
X159545962Y-57934283D01*
X159564272Y-57909082D01*
X159633033Y-57832716D01*
X159727679Y-57668784D01*
X159786174Y-57488756D01*
X159805960Y-57300500D01*
X159786174Y-57112244D01*
X159727679Y-56932216D01*
X159633033Y-56768284D01*
X159633032Y-56768283D01*
X159633030Y-56768279D01*
X159506372Y-56627613D01*
X159375593Y-56532597D01*
X159353230Y-56516349D01*
X159353229Y-56516348D01*
X159353227Y-56516347D01*
X159180305Y-56439357D01*
X159180303Y-56439356D01*
X159073860Y-56416731D01*
X158995148Y-56400000D01*
X158995146Y-56400000D01*
X158805854Y-56400000D01*
X158805852Y-56400000D01*
X158705892Y-56421247D01*
X158620697Y-56439356D01*
X158620695Y-56439356D01*
X158620694Y-56439357D01*
X158447772Y-56516347D01*
X158294627Y-56627613D01*
X158167968Y-56768281D01*
X158136797Y-56822271D01*
X158082259Y-56876808D01*
X158007759Y-56896770D01*
X157933259Y-56876807D01*
X157878722Y-56822269D01*
X157859576Y-56763341D01*
X157857674Y-56745246D01*
X157857674Y-56745244D01*
X157799179Y-56565216D01*
X157704533Y-56401284D01*
X157704532Y-56401283D01*
X157704530Y-56401279D01*
X157577872Y-56260613D01*
X157535691Y-56229967D01*
X157424730Y-56149349D01*
X157424729Y-56149348D01*
X157424727Y-56149347D01*
X157251805Y-56072357D01*
X157251803Y-56072356D01*
X157145360Y-56049731D01*
X157066648Y-56033000D01*
X157066646Y-56033000D01*
X156877354Y-56033000D01*
X156877352Y-56033000D01*
X156777392Y-56054247D01*
X156692197Y-56072356D01*
X156692195Y-56072356D01*
X156692194Y-56072357D01*
X156533104Y-56143189D01*
X156456926Y-56155255D01*
X156384920Y-56127615D01*
X156336382Y-56067675D01*
X156323500Y-56007071D01*
X156323500Y-54395863D01*
X156733500Y-54395863D01*
X156733502Y-54395888D01*
X156739908Y-54455478D01*
X156739909Y-54455484D01*
X156790202Y-54590329D01*
X156790204Y-54590333D01*
X156876452Y-54705544D01*
X156876455Y-54705547D01*
X156991666Y-54791795D01*
X156991670Y-54791797D01*
X157126517Y-54842091D01*
X157186114Y-54848499D01*
X157186118Y-54848499D01*
X157186127Y-54848500D01*
X158281872Y-54848499D01*
X158341483Y-54842091D01*
X158459011Y-54798256D01*
X158476329Y-54791797D01*
X158476333Y-54791795D01*
X158539768Y-54744307D01*
X158591546Y-54705546D01*
X158648925Y-54628898D01*
X158677795Y-54590333D01*
X158677797Y-54590329D01*
X158719024Y-54479793D01*
X158728091Y-54455483D01*
X158731718Y-54421745D01*
X158734499Y-54395885D01*
X158734499Y-54395882D01*
X158734500Y-54395873D01*
X158734499Y-53300128D01*
X158728091Y-53240517D01*
X158698743Y-53161831D01*
X158677797Y-53105670D01*
X158677795Y-53105666D01*
X158591547Y-52990455D01*
X158591544Y-52990452D01*
X158476333Y-52904204D01*
X158476329Y-52904202D01*
X158341482Y-52853908D01*
X158281876Y-52847500D01*
X157186136Y-52847500D01*
X157186111Y-52847502D01*
X157126521Y-52853908D01*
X157126515Y-52853909D01*
X156991670Y-52904202D01*
X156991666Y-52904204D01*
X156876455Y-52990452D01*
X156876452Y-52990455D01*
X156790204Y-53105666D01*
X156790202Y-53105670D01*
X156739908Y-53240517D01*
X156733500Y-53300114D01*
X156733500Y-54395863D01*
X156323500Y-54395863D01*
X156323500Y-53378600D01*
X156323746Y-53372550D01*
X156328339Y-53316152D01*
X156317741Y-53238374D01*
X156317085Y-53233558D01*
X156308073Y-53150684D01*
X156308071Y-53150677D01*
X156306336Y-53142791D01*
X156306431Y-53142769D01*
X156304677Y-53135282D01*
X156304582Y-53135306D01*
X156302632Y-53127468D01*
X156302631Y-53127466D01*
X156302631Y-53127463D01*
X156273880Y-53049206D01*
X156247267Y-52970220D01*
X156247264Y-52970215D01*
X156243874Y-52962886D01*
X156243962Y-52962845D01*
X156240636Y-52955904D01*
X156240549Y-52955948D01*
X156236962Y-52948716D01*
X156236961Y-52948712D01*
X156218088Y-52919186D01*
X156192059Y-52878463D01*
X156180401Y-52859088D01*
X156149089Y-52807046D01*
X156149086Y-52807043D01*
X156149085Y-52807041D01*
X156144199Y-52800613D01*
X156144277Y-52800553D01*
X156139540Y-52794492D01*
X156139463Y-52794555D01*
X156134402Y-52788259D01*
X156134400Y-52788256D01*
X156075447Y-52729303D01*
X156018132Y-52668795D01*
X156011976Y-52663567D01*
X156012039Y-52663492D01*
X155998200Y-52652056D01*
X154960745Y-51614601D01*
X154937068Y-51583744D01*
X154934990Y-51580146D01*
X154915029Y-51505648D01*
X154934991Y-51431148D01*
X154978565Y-51383595D01*
X155054401Y-51330495D01*
X155148819Y-51236077D01*
X155215613Y-51197512D01*
X155292741Y-51197512D01*
X155359536Y-51236076D01*
X155393784Y-51289366D01*
X155429202Y-51384329D01*
X155429204Y-51384333D01*
X155515452Y-51499544D01*
X155515455Y-51499547D01*
X155630666Y-51585795D01*
X155630670Y-51585797D01*
X155765517Y-51636091D01*
X155825114Y-51642499D01*
X155825118Y-51642499D01*
X155825127Y-51642500D01*
X157620872Y-51642499D01*
X157680483Y-51636091D01*
X157776447Y-51600298D01*
X157815329Y-51585797D01*
X157815333Y-51585795D01*
X157879473Y-51537779D01*
X157930546Y-51499546D01*
X158003769Y-51401733D01*
X158016795Y-51384333D01*
X158016797Y-51384329D01*
X158039088Y-51324562D01*
X158067091Y-51249483D01*
X158073500Y-51189873D01*
X158073499Y-49394128D01*
X158067091Y-49334517D01*
X158052216Y-49294634D01*
X158016797Y-49199670D01*
X158016795Y-49199666D01*
X157930547Y-49084455D01*
X157930544Y-49084452D01*
X157815333Y-48998204D01*
X157815329Y-48998202D01*
X157680482Y-48947908D01*
X157620876Y-48941500D01*
X155825136Y-48941500D01*
X155825111Y-48941502D01*
X155765521Y-48947908D01*
X155765515Y-48947909D01*
X155630670Y-48998202D01*
X155630666Y-48998204D01*
X155515455Y-49084452D01*
X155515452Y-49084455D01*
X155429204Y-49199666D01*
X155429203Y-49199668D01*
X155393784Y-49294634D01*
X155349045Y-49357461D01*
X155278887Y-49389501D01*
X155202108Y-49382170D01*
X155148819Y-49347923D01*
X155054402Y-49253506D01*
X154977517Y-49199670D01*
X154860830Y-49117965D01*
X154646663Y-49018097D01*
X154646661Y-49018096D01*
X154418409Y-48956937D01*
X154183000Y-48936341D01*
X153947590Y-48956937D01*
X153719340Y-49018096D01*
X153719339Y-49018096D01*
X153719337Y-49018097D01*
X153505171Y-49117965D01*
X153505168Y-49117966D01*
X153505168Y-49117967D01*
X153311596Y-49253507D01*
X153144507Y-49420596D01*
X153144505Y-49420599D01*
X153008965Y-49614171D01*
X152913000Y-49819967D01*
X152909096Y-49828340D01*
X152847937Y-50056590D01*
X152827341Y-50292000D01*
X152847937Y-50527409D01*
X152886907Y-50672851D01*
X152909097Y-50755663D01*
X153008965Y-50969830D01*
X153144505Y-51163401D01*
X153311599Y-51330495D01*
X153380312Y-51378608D01*
X153429888Y-51437690D01*
X153443282Y-51513646D01*
X153423887Y-51575160D01*
X153350824Y-51701709D01*
X153350819Y-51701721D01*
X153292325Y-51881745D01*
X153272540Y-52070000D01*
X153292325Y-52258254D01*
X153314326Y-52325965D01*
X153350821Y-52438284D01*
X153350822Y-52438285D01*
X153445469Y-52602220D01*
X153559897Y-52729303D01*
X153572129Y-52742888D01*
X153711165Y-52843903D01*
X153728944Y-52859088D01*
X154528859Y-53659003D01*
X154567423Y-53725798D01*
X154572500Y-53764362D01*
X154572500Y-54744307D01*
X154552538Y-54818807D01*
X154498000Y-54873345D01*
X154423500Y-54893307D01*
X154349000Y-54873345D01*
X154318141Y-54849666D01*
X154222878Y-54754403D01*
X154153103Y-54705546D01*
X154043639Y-54628898D01*
X154043640Y-54628898D01*
X154043638Y-54628897D01*
X154043633Y-54628894D01*
X153845330Y-54536425D01*
X153845328Y-54536424D01*
X153633977Y-54479793D01*
X153633978Y-54479793D01*
X153416000Y-54460723D01*
X153198021Y-54479793D01*
X152986673Y-54536424D01*
X152986672Y-54536424D01*
X152986670Y-54536425D01*
X152788362Y-54628898D01*
X152788359Y-54628899D01*
X152788359Y-54628900D01*
X152609120Y-54754404D01*
X152454404Y-54909120D01*
X152354180Y-55052256D01*
X152328898Y-55088362D01*
X152238190Y-55282886D01*
X152236424Y-55286673D01*
X152179793Y-55498021D01*
X152160723Y-55715999D01*
X152160723Y-55716000D01*
X152179793Y-55933978D01*
X152236424Y-56145328D01*
X152236425Y-56145330D01*
X152328894Y-56343633D01*
X152328897Y-56343638D01*
X152371513Y-56404500D01*
X152454402Y-56522877D01*
X152609123Y-56677598D01*
X152769474Y-56789877D01*
X152788361Y-56803102D01*
X152788366Y-56803105D01*
X152861540Y-56837226D01*
X152986670Y-56895575D01*
X153198023Y-56952207D01*
X153416000Y-56971277D01*
X153633977Y-56952207D01*
X153845330Y-56895575D01*
X154010286Y-56818654D01*
X154043633Y-56803105D01*
X154043634Y-56803104D01*
X154043639Y-56803102D01*
X154222877Y-56677598D01*
X154318141Y-56582334D01*
X154384936Y-56543770D01*
X154462064Y-56543770D01*
X154528859Y-56582334D01*
X154567423Y-56649129D01*
X154572500Y-56687693D01*
X154572500Y-59644307D01*
X154552538Y-59718807D01*
X154498000Y-59773345D01*
X154423500Y-59793307D01*
X154349000Y-59773345D01*
X154318141Y-59749666D01*
X154222878Y-59654403D01*
X154214276Y-59648380D01*
X154132006Y-59590773D01*
X154043638Y-59528897D01*
X154043633Y-59528894D01*
X153845330Y-59436425D01*
X153845328Y-59436424D01*
X153633977Y-59379793D01*
X153633978Y-59379793D01*
X153416000Y-59360723D01*
X153198021Y-59379793D01*
X152986673Y-59436424D01*
X152986672Y-59436424D01*
X152986670Y-59436425D01*
X152788362Y-59528898D01*
X152788359Y-59528899D01*
X152788359Y-59528900D01*
X152609120Y-59654404D01*
X152454404Y-59809120D01*
X152429382Y-59844856D01*
X152328898Y-59988362D01*
X152242434Y-60173784D01*
X152236424Y-60186673D01*
X152179793Y-60398021D01*
X152160723Y-60615999D01*
X152160723Y-60616000D01*
X147320500Y-60616000D01*
X147320500Y-49530000D01*
X148346659Y-49530000D01*
X148365976Y-49726134D01*
X148423187Y-49914731D01*
X148516083Y-50088526D01*
X148516087Y-50088532D01*
X148516090Y-50088538D01*
X148641117Y-50240883D01*
X148793462Y-50365910D01*
X148793471Y-50365915D01*
X148793473Y-50365916D01*
X148967268Y-50458812D01*
X148967270Y-50458812D01*
X148967273Y-50458814D01*
X149155868Y-50516024D01*
X149352000Y-50535341D01*
X149548132Y-50516024D01*
X149736727Y-50458814D01*
X149910538Y-50365910D01*
X150062883Y-50240883D01*
X150187910Y-50088538D01*
X150280814Y-49914727D01*
X150338024Y-49726132D01*
X150347000Y-49634988D01*
X150347335Y-49632411D01*
X150347475Y-49631197D01*
X150347720Y-49627689D01*
X150357341Y-49529996D01*
X150357341Y-49529995D01*
X150347718Y-49432297D01*
X150347474Y-49428795D01*
X150347472Y-49428782D01*
X150347328Y-49427532D01*
X150346995Y-49424954D01*
X150342781Y-49382170D01*
X150338024Y-49333868D01*
X150280814Y-49145273D01*
X150280812Y-49145270D01*
X150280812Y-49145268D01*
X150187916Y-48971473D01*
X150187915Y-48971471D01*
X150187910Y-48971462D01*
X150062883Y-48819117D01*
X149910538Y-48694090D01*
X149910532Y-48694087D01*
X149910526Y-48694083D01*
X149736731Y-48601187D01*
X149548134Y-48543976D01*
X149352000Y-48524659D01*
X149155865Y-48543976D01*
X148967268Y-48601187D01*
X148793473Y-48694083D01*
X148793465Y-48694088D01*
X148793463Y-48694089D01*
X148793462Y-48694090D01*
X148641117Y-48819117D01*
X148528011Y-48956937D01*
X148516088Y-48971465D01*
X148516083Y-48971473D01*
X148423187Y-49145268D01*
X148365976Y-49333865D01*
X148346659Y-49530000D01*
X147320500Y-49530000D01*
X147320500Y-48253087D01*
X147321138Y-48243353D01*
X147334477Y-48142035D01*
X147344541Y-48104472D01*
X147379482Y-48020118D01*
X147398924Y-47986442D01*
X147454511Y-47914001D01*
X147482001Y-47886511D01*
X147554442Y-47830924D01*
X147588118Y-47811482D01*
X147672472Y-47776541D01*
X147710035Y-47766477D01*
X147811358Y-47753137D01*
X147821087Y-47752500D01*
X204984913Y-47752500D01*
X204994641Y-47753137D01*
G37*
%TD.AperFunction*%
%TD*%
M02*
